RobotoAvar2-XOLC2.ufo
<glyph name="a" format="2">
  <advance width="751"/>
  <unicode hex="0061"/>
  <anchor x="318" y="0" name="bottom"/>
  <anchor x="644" y="0" name="ogonek"/>
  <anchor x="381" y="1052" name="top"/>
  <outline>
    <contour>
      <point x="319" y="-20" type="qcurve" smooth="yes"/>
      <point x="216" y="-20"/>
      <point x="90" y="150"/>
      <point x="90" y="314" type="qcurve" smooth="yes"/>
      <point x="90" y="470"/>
      <point x="235" y="648"/>
      <point x="376" y="648" type="qcurve" smooth="yes"/>
      <point x="602" y="648" type="line"/>
      <point x="602" y="516" type="line"/>
      <point x="381" y="516" type="line" smooth="yes"/>
      <point x="241" y="516"/>
      <point x="97" y="410"/>
      <point x="97" y="314" type="qcurve" smooth="yes"/>
      <point x="97" y="230"/>
      <point x="201" y="128"/>
      <point x="311" y="128" type="qcurve" smooth="yes"/>
      <point x="421" y="128"/>
      <point x="599" y="280"/>
      <point x="599" y="365" type="qcurve"/>
      <point x="599" y="720" type="line" smooth="yes"/>
      <point x="599" y="833"/>
      <point x="488" y="934"/>
      <point x="381" y="934" type="qcurve" smooth="yes"/>
      <point x="263" y="934"/>
      <point x="158" y="835"/>
      <point x="158" y="770" type="qcurve" smooth="yes"/>
      <point x="158" y="765" type="line"/>
      <point x="151" y="765" type="line"/>
      <point x="151" y="770" type="line" smooth="yes"/>
      <point x="151" y="931"/>
      <point x="278" y="1082"/>
      <point x="382" y="1082" type="qcurve" smooth="yes"/>
      <point x="487" y="1082"/>
      <point x="606" y="910"/>
      <point x="606" y="720" type="qcurve" smooth="yes"/>
      <point x="606" y="240" type="line" smooth="yes"/>
      <point x="606" y="142"/>
      <point x="634" y="30"/>
      <point x="647" y="6" type="qcurve"/>
      <point x="647" y="0" type="line"/>
      <point x="642" y="0" type="line"/>
      <point x="629" y="25"/>
      <point x="606" y="105"/>
      <point x="603" y="145" type="qcurve"/>
      <point x="566" y="80"/>
      <point x="401" y="-20"/>
    </contour>
  </outline>
</glyph>
<glyph name="b" format="2">
  <advance width="808"/>
  <unicode hex="0062"/>
  <anchor x="247" y="0" name="bottom"/>
  <anchor x="224" y="1536" name="top"/>
  <outline>
    <contour>
      <point x="148" y="0" type="line"/>
      <point x="148" y="1536" type="line"/>
      <point x="155" y="1536" type="line"/>
      <point x="155" y="137" type="line"/>
      <point x="155" y="137" type="line"/>
      <point x="155" y="0" type="line"/>
    </contour>
    <contour>
      <point x="433" y="132" type="qcurve" smooth="yes"/>
      <point x="566" y="132"/>
      <point x="716" y="350"/>
      <point x="716" y="510" type="qcurve" smooth="yes"/>
      <point x="716" y="542" type="line" smooth="yes"/>
      <point x="716" y="702"/>
      <point x="576" y="920"/>
      <point x="437" y="920" type="qcurve" smooth="yes"/>
      <point x="308" y="920"/>
      <point x="155" y="708"/>
      <point x="155" y="549" type="qcurve" smooth="yes"/>
      <point x="155" y="521" type="line" smooth="yes"/>
      <point x="155" y="338"/>
      <point x="307" y="132"/>
    </contour>
    <contour>
      <point x="440" y="-20" type="qcurve" smooth="yes"/>
      <point x="304" y="-20"/>
      <point x="148" y="235"/>
      <point x="148" y="520" type="qcurve" smooth="yes"/>
      <point x="148" y="554" type="line" smooth="yes"/>
      <point x="148" y="793"/>
      <point x="311" y="1072"/>
      <point x="450" y="1072" type="qcurve" smooth="yes"/>
      <point x="572" y="1072"/>
      <point x="723" y="772"/>
      <point x="723" y="542" type="qcurve" smooth="yes"/>
      <point x="723" y="510" type="line" smooth="yes"/>
      <point x="723" y="280"/>
      <point x="584" y="-20"/>
    </contour>
  </outline>
</glyph>
<glyph name="e" format="2">
  <advance width="739"/>
  <unicode hex="0065"/>
  <anchor x="411" y="0" name="bottom"/>
  <anchor x="526" y="0" name="ogonek"/>
  <anchor x="386" y="1052" name="top"/>
  <outline>
    <contour>
      <point x="85" y="510" type="qcurve" smooth="yes"/>
      <point x="85" y="542" type="line" smooth="yes"/>
      <point x="85" y="780"/>
      <point x="239" y="1082"/>
      <point x="382" y="1082" type="qcurve" smooth="yes"/>
      <point x="512" y="1082"/>
      <point x="642" y="854"/>
      <point x="645" y="656" type="qcurve"/>
      <point x="645" y="484" type="line"/>
      <point x="89" y="484" type="line"/>
      <point x="89" y="632" type="line"/>
      <point x="638" y="632" type="line"/>
      <point x="638" y="656" type="line" smooth="yes"/>
      <point x="638" y="770"/>
      <point x="508" y="930"/>
      <point x="386" y="930" type="qcurve" smooth="yes"/>
      <point x="238" y="930"/>
      <point x="92" y="705"/>
      <point x="92" y="542" type="qcurve" smooth="yes"/>
      <point x="92" y="510" type="line" smooth="yes"/>
      <point x="92" y="347"/>
      <point x="246" y="122"/>
      <point x="408" y="122" type="qcurve" smooth="yes"/>
      <point x="508" y="122"/>
      <point x="607" y="210"/>
      <point x="653" y="270" type="qcurve"/>
      <point x="659" y="268" type="line"/>
      <point x="631" y="137"/>
      <point x="523" y="-30"/>
      <point x="408" y="-30" type="qcurve" smooth="yes"/>
      <point x="244" y="-30"/>
      <point x="85" y="272"/>
    </contour>
  </outline>
</glyph>
<glyph name="f" format="2">
  <advance width="418"/>
  <unicode hex="0066"/>
  <anchor x="198" y="0" name="bottom"/>
  <anchor x="208" y="1456" name="top"/>
  <outline>
    <contour>
      <point x="196" y="0" type="line"/>
      <point x="196" y="1147" type="line" smooth="yes"/>
      <point x="196" y="1334"/>
      <point x="300" y="1476"/>
      <point x="381" y="1476" type="qcurve" smooth="yes"/>
      <point x="406" y="1476"/>
      <point x="471" y="1467"/>
      <point x="496" y="1460" type="qcurve"/>
      <point x="486" y="1312" type="line"/>
      <point x="464" y="1316"/>
      <point x="414" y="1322"/>
      <point x="388" y="1322" type="qcurve" smooth="yes"/>
      <point x="306" y="1322"/>
      <point x="203" y="1252"/>
      <point x="203" y="1147" type="qcurve" smooth="yes"/>
      <point x="203" y="992" type="line"/>
      <point x="203" y="970" type="line"/>
      <point x="203" y="0" type="line"/>
    </contour>
    <contour>
      <point x="25" y="910" type="line"/>
      <point x="25" y="1052" type="line"/>
      <point x="197" y="1052" type="line"/>
      <point x="199" y="1052" type="line"/>
      <point x="428" y="1052" type="line"/>
      <point x="428" y="910" type="line"/>
    </contour>
  </outline>
</glyph>
<glyph name="g" format="2">
  <advance width="808"/>
  <unicode hex="0067"/>
  <anchor x="386" y="-416" name="bottom"/>
  <anchor x="406" y="1052" name="top"/>
  <outline>
    <contour>
      <point x="364" y="-436" type="qcurve" smooth="yes"/>
      <point x="281" y="-436"/>
      <point x="147" y="-310"/>
      <point x="106" y="-146" type="qcurve"/>
      <point x="112" y="-144" type="line"/>
      <point x="132" y="-221"/>
      <point x="234" y="-274"/>
      <point x="359" y="-274" type="qcurve" smooth="yes"/>
      <point x="494" y="-274"/>
      <point x="653" y="-120"/>
      <point x="653" y="20" type="qcurve" smooth="yes"/>
      <point x="653" y="915" type="line"/>
      <point x="653" y="915" type="line"/>
      <point x="653" y="1052" type="line"/>
      <point x="660" y="1052" type="line"/>
      <point x="660" y="20" type="line" smooth="yes"/>
      <point x="660" y="-233"/>
      <point x="514" y="-436"/>
    </contour>
    <contour>
      <point x="382" y="132" type="qcurve" smooth="yes"/>
      <point x="499" y="132"/>
      <point x="653" y="354"/>
      <point x="653" y="503" type="qcurve" smooth="yes"/>
      <point x="653" y="531" type="line" smooth="yes"/>
      <point x="653" y="704"/>
      <point x="498" y="920"/>
      <point x="382" y="920" type="qcurve" smooth="yes"/>
      <point x="229" y="920"/>
      <point x="92" y="703"/>
      <point x="92" y="542" type="qcurve" smooth="yes"/>
      <point x="92" y="510" type="line" smooth="yes"/>
      <point x="92" y="350"/>
      <point x="242" y="132"/>
    </contour>
    <contour>
      <point x="343" y="-20" type="qcurve" smooth="yes"/>
      <point x="234" y="-20"/>
      <point x="85" y="280"/>
      <point x="85" y="510" type="qcurve" smooth="yes"/>
      <point x="85" y="542" type="line" smooth="yes"/>
      <point x="85" y="772"/>
      <point x="226" y="1072"/>
      <point x="343" y="1072" type="qcurve" smooth="yes"/>
      <point x="516" y="1072"/>
      <point x="660" y="769"/>
      <point x="660" y="531" type="qcurve" smooth="yes"/>
      <point x="660" y="503" type="line" smooth="yes"/>
      <point x="660" y="282"/>
      <point x="513" y="-20"/>
    </contour>
  </outline>
</glyph>
<glyph name="h" format="2">
  <advance width="780"/>
  <unicode hex="0068"/>
  <anchor x="390" y="0" name="bottom"/>
  <anchor x="239" y="1287" name="center"/>
  <anchor x="152" y="1456" name="top"/>
  <anchor x="638" y="0" name="engtail"/>
  <outline>
    <contour>
      <point x="155" y="0" type="line"/>
      <point x="148" y="0" type="line"/>
      <point x="148" y="1456" type="line"/>
      <point x="155" y="1456" type="line"/>
    </contour>
    <contour>
      <point x="151" y="787" type="line"/>
      <point x="230" y="938"/>
      <point x="367" y="1072"/>
      <point x="418" y="1072" type="qcurve" smooth="yes"/>
      <point x="549" y="1072"/>
      <point x="642" y="931"/>
      <point x="642" y="679" type="qcurve" smooth="yes"/>
      <point x="642" y="0" type="line"/>
      <point x="635" y="0" type="line"/>
      <point x="635" y="680" type="line" smooth="yes"/>
      <point x="635" y="807"/>
      <point x="523" y="916"/>
      <point x="418" y="916" type="qcurve" smooth="yes"/>
      <point x="328" y="916"/>
      <point x="236" y="771"/>
      <point x="151" y="579" type="qcurve"/>
    </contour>
  </outline>
</glyph>
<glyph name="k" format="2">
  <advance width="641"/>
  <unicode hex="006B"/>
  <anchor x="423" y="0" name="bottom"/>
  <anchor x="367" y="1456" name="top"/>
  <outline>
    <contour>
      <point x="148" y="0" type="line"/>
      <point x="148" y="1456" type="line"/>
      <point x="155" y="1456" type="line"/>
      <point x="155" y="0" type="line"/>
    </contour>
    <contour>
      <point x="648" y="0" type="line"/>
      <point x="273" y="617" type="line"/>
      <point x="277" y="622" type="line"/>
      <point x="657" y="0" type="line"/>
    </contour>
    <contour>
      <point x="152" y="460" type="line"/>
      <point x="152" y="470" type="line"/>
      <point x="627" y="1052" type="line"/>
      <point x="634" y="1052" type="line"/>
    </contour>
  </outline>
</glyph>
<glyph name="m" format="2">
  <advance width="1218"/>
  <unicode hex="006D"/>
  <anchor x="615" y="0" name="bottom"/>
  <anchor x="615" y="1052" name="top"/>
  <outline>
    <contour>
      <point x="148" y="0" type="line"/>
      <point x="148" y="1052" type="line"/>
      <point x="152" y="1052" type="line"/>
      <point x="152" y="757" type="line"/>
      <point x="152" y="0" type="line"/>
    </contour>
    <contour>
      <point x="616" y="751" type="qcurve" smooth="yes"/>
      <point x="616" y="0" type="line"/>
      <point x="612" y="0" type="line"/>
      <point x="612" y="701" type="line" smooth="yes"/>
      <point x="612" y="827"/>
      <point x="521" y="916"/>
      <point x="437" y="916" type="qcurve" smooth="yes"/>
      <point x="362" y="916"/>
      <point x="237" y="858"/>
      <point x="150" y="752" type="qcurve"/>
      <point x="150" y="897" type="line"/>
      <point x="198" y="998"/>
      <point x="332" y="1072"/>
      <point x="402" y="1072" type="qcurve" smooth="yes"/>
      <point x="475" y="1072"/>
      <point x="616" y="959"/>
    </contour>
    <contour>
      <point x="614" y="830" type="line"/>
      <point x="625" y="956"/>
      <point x="754" y="1072"/>
      <point x="845" y="1072" type="qcurve" smooth="yes"/>
      <point x="959" y="1072"/>
      <point x="1080" y="909"/>
      <point x="1080" y="697" type="qcurve" smooth="yes"/>
      <point x="1080" y="0" type="line"/>
      <point x="1076" y="0" type="line"/>
      <point x="1076" y="699" type="line" smooth="yes"/>
      <point x="1076" y="825"/>
      <point x="980" y="916"/>
      <point x="882" y="916" type="qcurve" smooth="yes"/>
      <point x="783" y="916"/>
      <point x="648" y="831"/>
      <point x="614" y="757" type="qcurve"/>
    </contour>
  </outline>
</glyph>
<glyph name="o" format="2">
  <advance width="790"/>
  <unicode hex="006F"/>
  <anchor x="393" y="0" name="bottom"/>
  <anchor x="393" y="526" name="center"/>
  <anchor x="510" y="0" name="ogonek"/>
  <anchor x="393" y="1052" name="top"/>
  <anchor x="509" y="1052" name="topright"/>
  <anchor x="86" y="536" name="yu_dash"/>
  <outline>
    <contour>
      <point x="85" y="510" type="qcurve" smooth="yes"/>
      <point x="85" y="542" type="line" smooth="yes"/>
      <point x="85" y="780"/>
      <point x="254" y="1082"/>
      <point x="395" y="1082" type="qcurve" smooth="yes"/>
      <point x="537" y="1082"/>
      <point x="705" y="780"/>
      <point x="705" y="542" type="qcurve" smooth="yes"/>
      <point x="705" y="510" type="line" smooth="yes"/>
      <point x="705" y="272"/>
      <point x="537" y="-30"/>
      <point x="395" y="-30" type="qcurve" smooth="yes"/>
      <point x="254" y="-30"/>
      <point x="85" y="272"/>
    </contour>
    <contour>
      <point x="89" y="542" type="qcurve" smooth="yes"/>
      <point x="89" y="510" type="line" smooth="yes"/>
      <point x="89" y="347"/>
      <point x="243" y="122"/>
      <point x="395" y="122" type="qcurve" smooth="yes"/>
      <point x="547" y="122"/>
      <point x="701" y="347"/>
      <point x="701" y="510" type="qcurve" smooth="yes"/>
      <point x="701" y="542" type="line" smooth="yes"/>
      <point x="701" y="705"/>
      <point x="547" y="930"/>
      <point x="395" y="930" type="qcurve" smooth="yes"/>
      <point x="243" y="930"/>
      <point x="89" y="705"/>
    </contour>
  </outline>
</glyph>
<glyph name="s" format="2">
  <advance width="655"/>
  <unicode hex="0073"/>
  <anchor x="332" y="0" name="bottom"/>
  <anchor x="321" y="1052" name="top"/>
  <outline>
    <contour>
      <point x="80" y="310" type="line"/>
      <point x="87" y="310" type="line"/>
      <point x="87" y="305" type="line" smooth="yes"/>
      <point x="87" y="204"/>
      <point x="222" y="122"/>
      <point x="331" y="122" type="qcurve" smooth="yes"/>
      <point x="441" y="122"/>
      <point x="568" y="210"/>
      <point x="568" y="280" type="qcurve" smooth="yes"/>
      <point x="568" y="390"/>
      <point x="464" y="518"/>
      <point x="348" y="551" type="qcurve" smooth="yes"/>
      <point x="218" y="588"/>
      <point x="103" y="701"/>
      <point x="103" y="790" type="qcurve" smooth="yes"/>
      <point x="103" y="923"/>
      <point x="217" y="1082"/>
      <point x="321" y="1082" type="qcurve" smooth="yes"/>
      <point x="424" y="1082"/>
      <point x="543" y="914"/>
      <point x="543" y="769" type="qcurve" smooth="yes"/>
      <point x="543" y="760" type="line"/>
      <point x="536" y="760" type="line"/>
      <point x="536" y="769" type="line" smooth="yes"/>
      <point x="536" y="849"/>
      <point x="437" y="930"/>
      <point x="321" y="930" type="qcurve" smooth="yes"/>
      <point x="202" y="930"/>
      <point x="110" y="857"/>
      <point x="110" y="790" type="qcurve" smooth="yes"/>
      <point x="110" y="703"/>
      <point x="223" y="593"/>
      <point x="352" y="557" type="qcurve" smooth="yes"/>
      <point x="468" y="524"/>
      <point x="575" y="392"/>
      <point x="575" y="280" type="qcurve" smooth="yes"/>
      <point x="575" y="141"/>
      <point x="457" y="-30"/>
      <point x="331" y="-30" type="qcurve" smooth="yes"/>
      <point x="219" y="-30"/>
      <point x="80" y="130"/>
      <point x="80" y="305" type="qcurve" smooth="yes"/>
    </contour>
  </outline>
</glyph>
<glyph name="v" format="2">
  <advance width="780"/>
  <unicode hex="0076"/>
  <anchor x="396" y="0" name="bottom"/>
  <anchor x="396" y="1052" name="top"/>
  <outline>
    <contour>
      <point x="0" y="1052" type="line"/>
      <point x="7" y="1052" type="line"/>
      <point x="346" y="137" type="line" smooth="yes"/>
      <point x="361" y="97"/>
      <point x="387" y="27"/>
      <point x="393" y="7" type="qcurve"/>
      <point x="399" y="7" type="line"/>
      <point x="405" y="27"/>
      <point x="429" y="97"/>
      <point x="443" y="137" type="qcurve" smooth="yes"/>
      <point x="773" y="1052" type="line"/>
      <point x="780" y="1052" type="line"/>
      <point x="402" y="0" type="line"/>
      <point x="389" y="0" type="line"/>
    </contour>
  </outline>
</glyph>
<glyph name="w" format="2">
  <advance width="1374"/>
  <unicode hex="0077"/>
  <anchor x="683" y="0" name="bottom"/>
  <anchor x="683" y="1052" name="top"/>
  <outline>
    <contour>
      <point x="25" y="1052" type="line"/>
      <point x="32" y="1052" type="line"/>
      <point x="312" y="141" type="line" smooth="yes"/>
      <point x="324" y="101"/>
      <point x="340" y="47"/>
      <point x="352" y="7" type="qcurve"/>
      <point x="358" y="7" type="line"/>
      <point x="370" y="47"/>
      <point x="386" y="102"/>
      <point x="398" y="141" type="qcurve" smooth="yes"/>
      <point x="677" y="1052" type="line"/>
      <point x="689" y="1052" type="line"/>
      <point x="995" y="141" type="line" smooth="yes"/>
      <point x="1008" y="101"/>
      <point x="1024" y="47"/>
      <point x="1037" y="7" type="qcurve"/>
      <point x="1043" y="7" type="line"/>
      <point x="1054" y="47"/>
      <point x="1069" y="101"/>
      <point x="1080" y="141" type="qcurve" smooth="yes"/>
      <point x="1342" y="1052" type="line"/>
      <point x="1349" y="1052" type="line"/>
      <point x="1046" y="0" type="line"/>
      <point x="1034" y="0" type="line"/>
      <point x="738" y="881" type="line" smooth="yes"/>
      <point x="725" y="921"/>
      <point x="699" y="998"/>
      <point x="686" y="1038" type="qcurve"/>
      <point x="680" y="1038" type="line"/>
      <point x="668" y="998"/>
      <point x="645" y="921"/>
      <point x="633" y="881" type="qcurve" smooth="yes"/>
      <point x="362" y="0" type="line"/>
      <point x="348" y="0" type="line"/>
    </contour>
  </outline>
</glyph>
<glyph name="x" format="2">
  <advance width="776"/>
  <unicode hex="0078"/>
  <anchor x="384" y="0" name="bottom"/>
  <anchor x="384" y="1052" name="top"/>
  <anchor x="741" y="0" name="cy_descender"/>
  <outline>
    <contour>
      <point x="20" y="0" type="line"/>
      <point x="414" y="584" type="line"/>
      <point x="414" y="584" type="line"/>
      <point x="730" y="1052" type="line"/>
      <point x="738" y="1052" type="line"/>
      <point x="354" y="484" type="line"/>
      <point x="354" y="484" type="line"/>
      <point x="27" y="0" type="line"/>
    </contour>
    <contour>
      <point x="43" y="1052" type="line"/>
      <point x="52" y="1052" type="line"/>
      <point x="361" y="583" type="line"/>
      <point x="361" y="583" type="line"/>
      <point x="756" y="0" type="line"/>
      <point x="747" y="0" type="line"/>
      <point x="419" y="484" type="line"/>
      <point x="419" y="484" type="line"/>
    </contour>
  </outline>
</glyph>
<glyph name="y" format="2">
  <advance width="661"/>
  <unicode hex="0079"/>
  <anchor x="618" y="0" name="bottom"/>
  <anchor x="336" y="1052" name="top"/>
  <outline>
    <contour>
      <point x="38" y="-416" type="qcurve"/>
      <point x="38" y="-409" type="line"/>
      <point x="59" y="-419"/>
      <point x="96" y="-429"/>
      <point x="116" y="-429" type="qcurve" smooth="yes"/>
      <point x="160" y="-429"/>
      <point x="253" y="-283"/>
      <point x="338" y="5" type="qcurve"/>
      <point x="333" y="5" type="line"/>
      <point x="10" y="1052" type="line"/>
      <point x="17" y="1052" type="line"/>
      <point x="295" y="152" type="line" smooth="yes"/>
      <point x="307" y="112"/>
      <point x="329" y="42"/>
      <point x="335" y="12" type="qcurve"/>
      <point x="341" y="12" type="line"/>
      <point x="348" y="42"/>
      <point x="370" y="111"/>
      <point x="382" y="152" type="qcurve" smooth="yes"/>
      <point x="654" y="1052" type="line"/>
      <point x="661" y="1052" type="line"/>
      <point x="321" y="-73" type="line" smooth="yes"/>
      <point x="258" y="-283"/>
      <point x="165" y="-436"/>
      <point x="116" y="-436" type="qcurve" smooth="yes"/>
      <point x="96" y="-436"/>
      <point x="59" y="-426"/>
    </contour>
  </outline>
</glyph>
<glyph name="z" format="2">
  <advance width="788"/>
  <unicode hex="007A"/>
  <anchor x="388" y="0" name="bottom"/>
  <anchor x="394" y="1052" name="top"/>
  <outline>
    <contour>
      <point x="70" y="0" type="line"/>
      <point x="70" y="5" type="line"/>
      <point x="690" y="1045" type="line"/>
      <point x="78" y="1045" type="line"/>
      <point x="78" y="1052" type="line"/>
      <point x="698" y="1052" type="line"/>
      <point x="698" y="1047" type="line"/>
      <point x="79" y="7" type="line"/>
      <point x="724" y="7" type="line"/>
      <point x="724" y="0" type="line"/>
    </contour>
  </outline>
</glyph>
<glyph name="germandbls" format="2">
  <advance width="838"/>
  <unicode hex="00DF"/>
  <outline>
    <contour>
      <point x="155" y="1092" type="qcurve" name="hr00"/>
      <point x="155" y="0" type="line"/>
      <point x="148" y="0" type="line"/>
      <point x="148" y="1092" type="line" smooth="yes"/>
      <point x="148" y="1295"/>
      <point x="263" y="1534"/>
      <point x="370" y="1534" type="qcurve" smooth="yes"/>
      <point x="458" y="1534"/>
      <point x="569" y="1361"/>
      <point x="569" y="1215" type="qcurve" smooth="yes"/>
      <point x="569" y="1127"/>
      <point x="569" y="1016"/>
      <point x="567" y="973" type="qcurve" smooth="yes"/>
      <point x="565" y="935"/>
      <point x="560" y="859"/>
      <point x="560" y="830" type="qcurve" smooth="yes"/>
      <point x="560" y="782"/>
      <point x="638" y="681"/>
      <point x="685" y="619" type="qcurve" smooth="yes"/>
      <point x="730" y="560"/>
      <point x="790" y="412"/>
      <point x="790" y="302" type="qcurve" smooth="yes"/>
      <point x="790" y="158"/>
      <point x="666" y="-20"/>
      <point x="534" y="-20" type="qcurve" smooth="yes"/>
      <point x="408" y="-20"/>
      <point x="215" y="129"/>
      <point x="215" y="278" type="qcurve" smooth="yes"/>
      <point x="215" y="304" type="line"/>
      <point x="378" y="304" type="line"/>
      <point x="378" y="295" type="line" smooth="yes"/>
      <point x="378" y="211"/>
      <point x="483" y="131"/>
      <point x="578" y="131" type="qcurve" smooth="yes"/>
      <point x="679" y="131"/>
      <point x="786" y="218"/>
      <point x="786" y="302" type="qcurve" smooth="yes"/>
      <point x="786" y="371"/>
      <point x="687" y="466"/>
      <point x="630" y="512" type="qcurve" smooth="yes"/>
      <point x="558" y="569"/>
      <point x="386" y="706"/>
      <point x="386" y="797" type="qcurve" smooth="yes"/>
      <point x="386" y="871"/>
      <point x="469" y="982"/>
      <point x="501" y="1026" type="qcurve" smooth="yes"/>
      <point x="530" y="1066"/>
      <point x="565" y="1149"/>
      <point x="565" y="1215" type="qcurve" smooth="yes"/>
      <point x="565" y="1293"/>
      <point x="456" y="1383"/>
      <point x="374" y="1383" type="qcurve" smooth="yes"/>
      <point x="271" y="1383"/>
      <point x="155" y="1241"/>
    </contour>
  </outline>
</glyph>
<glyph name="ae" format="2">
  <advance width="1232"/>
  <unicode hex="00E6"/>
  <anchor x="630" y="1052" name="top"/>
  <outline>
    <contour>
      <point x="322" y="-21" type="qcurve" smooth="yes"/>
      <point x="226" y="-21"/>
      <point x="87" y="149"/>
      <point x="87" y="319" type="qcurve" smooth="yes"/>
      <point x="87" y="474"/>
      <point x="238" y="648"/>
      <point x="380" y="648" type="qcurve" smooth="yes"/>
      <point x="597" y="648" type="line"/>
      <point x="597" y="516" type="line"/>
      <point x="378" y="516" type="line" smooth="yes"/>
      <point x="238" y="516"/>
      <point x="94" y="409"/>
      <point x="94" y="319" type="qcurve" smooth="yes"/>
      <point x="94" y="229"/>
      <point x="198" y="127"/>
      <point x="323" y="127" type="qcurve" smooth="yes"/>
      <point x="418" y="127"/>
      <point x="596" y="279"/>
      <point x="596" y="364" type="qcurve"/>
      <point x="596" y="719" type="line" smooth="yes"/>
      <point x="596" y="820"/>
      <point x="498" y="933"/>
      <point x="378" y="933" type="qcurve" smooth="yes"/>
      <point x="258" y="933"/>
      <point x="155" y="834"/>
      <point x="155" y="769" type="qcurve" smooth="yes"/>
      <point x="155" y="764" type="line"/>
      <point x="148" y="764" type="line"/>
      <point x="148" y="769" type="line" smooth="yes"/>
      <point x="148" y="920"/>
      <point x="269" y="1081"/>
      <point x="378" y="1081" type="qcurve" smooth="yes"/>
      <point x="484" y="1081"/>
      <point x="602" y="906"/>
      <point x="603" y="698" type="qcurve"/>
      <point x="631" y="903"/>
      <point x="773" y="1082"/>
      <point x="886" y="1082" type="qcurve"/>
      <point x="1013" y="1082"/>
      <point x="1158" y="800"/>
      <point x="1155" y="560" type="qcurve" smooth="yes"/>
      <point x="1155" y="484" type="line"/>
      <point x="598" y="484" type="line"/>
      <point x="598" y="632" type="line"/>
      <point x="1148" y="632" type="line"/>
      <point x="1148" y="656" type="line"/>
      <point x="1148" y="698"/>
      <point x="1023" y="930"/>
      <point x="883" y="930" type="qcurve" smooth="yes"/>
      <point x="746" y="930"/>
      <point x="603" y="705"/>
      <point x="603" y="542" type="qcurve" smooth="yes"/>
      <point x="603" y="510" type="line" smooth="yes"/>
      <point x="603" y="347"/>
      <point x="740" y="122"/>
      <point x="863" y="122" type="qcurve" smooth="yes"/>
      <point x="963" y="122"/>
      <point x="1089" y="184"/>
      <point x="1137" y="229" type="qcurve"/>
      <point x="1143" y="226" type="line"/>
      <point x="1117" y="126"/>
      <point x="976" y="-30"/>
      <point x="864" y="-30" type="qcurve" smooth="yes"/>
      <point x="756" y="-30"/>
      <point x="640" y="87"/>
      <point x="600" y="213" type="qcurve"/>
      <point x="566" y="99"/>
      <point x="420" y="-21"/>
    </contour>
  </outline>
</glyph>
<glyph name="eth" format="2">
  <advance width="763"/>
  <unicode hex="00F0"/>
  <outline>
    <contour>
      <point x="133" y="1316" type="qcurve"/>
      <point x="192" y="1476" type="line"/>
      <point x="404" y="1401"/>
      <point x="674" y="978"/>
      <point x="674" y="633" type="qcurve"/>
      <point x="674" y="535" type="line"/>
      <point x="674" y="289"/>
      <point x="514" y="-20"/>
      <point x="386" y="-20" type="qcurve" smooth="yes"/>
      <point x="259" y="-20"/>
      <point x="88" y="265"/>
      <point x="88" y="468" type="qcurve" smooth="yes"/>
      <point x="88" y="698"/>
      <point x="259" y="978"/>
      <point x="391" y="978" type="qcurve" smooth="yes"/>
      <point x="527" y="978"/>
      <point x="672" y="749"/>
      <point x="672" y="614" type="qcurve"/>
      <point x="668" y="614" type="line"/>
      <point x="668" y="685"/>
      <point x="512" y="826"/>
      <point x="401" y="826" type="qcurve" smooth="yes"/>
      <point x="253" y="826"/>
      <point x="95" y="632"/>
      <point x="95" y="468" type="qcurve" smooth="yes"/>
      <point x="95" y="345"/>
      <point x="248" y="132"/>
      <point x="389" y="132" type="qcurve" smooth="yes"/>
      <point x="517" y="132"/>
      <point x="667" y="363"/>
      <point x="667" y="535" type="qcurve" smooth="yes"/>
      <point x="667" y="635" type="line" smooth="yes"/>
      <point x="667" y="954"/>
      <point x="349" y="1250"/>
    </contour>
    <contour>
      <point x="667" y="1274" type="line"/>
      <point x="181" y="1037" type="line"/>
      <point x="116" y="1168" type="line"/>
      <point x="601" y="1404" type="line"/>
    </contour>
  </outline>
</glyph>
<glyph name="thorn" format="2">
  <advance width="802"/>
  <unicode hex="00FE"/>
  <outline>
    <contour>
      <point x="152" y="-416" type="line"/>
      <point x="148" y="-416" type="line"/>
      <point x="148" y="1536" type="line"/>
      <point x="152" y="1536" type="line"/>
      <point x="152" y="928" type="line"/>
    </contour>
    <contour>
      <point x="443" y="132" type="qcurve" smooth="yes"/>
      <point x="583" y="132"/>
      <point x="713" y="350"/>
      <point x="713" y="510" type="qcurve" smooth="yes"/>
      <point x="713" y="542" type="line" smooth="yes"/>
      <point x="713" y="702"/>
      <point x="583" y="920"/>
      <point x="443" y="920" type="qcurve" smooth="yes"/>
      <point x="312" y="920"/>
      <point x="152" y="756"/>
      <point x="152" y="645" type="qcurve" smooth="yes"/>
      <point x="152" y="408" type="line" smooth="yes"/>
      <point x="152" y="285"/>
      <point x="317" y="132"/>
    </contour>
    <contour>
      <point x="427" y="-20" type="qcurve" smooth="yes"/>
      <point x="300" y="-20"/>
      <point x="149" y="147"/>
      <point x="149" y="296" type="qcurve" smooth="yes"/>
      <point x="149" y="761" type="line" smooth="yes"/>
      <point x="149" y="888"/>
      <point x="292" y="1072"/>
      <point x="427" y="1072" type="qcurve" smooth="yes"/>
      <point x="559" y="1072"/>
      <point x="717" y="772"/>
      <point x="717" y="542" type="qcurve" smooth="yes"/>
      <point x="717" y="510" type="line" smooth="yes"/>
      <point x="717" y="280"/>
      <point x="559" y="-20"/>
    </contour>
  </outline>
</glyph>
<glyph name="kgreenlandic" format="2">
  <advance width="742"/>
  <unicode hex="0138"/>
  <outline>
    <contour>
      <point x="162" y="1052" type="line"/>
      <point x="162" y="0" type="line"/>
      <point x="155" y="0" type="line"/>
      <point x="155" y="1052" type="line"/>
    </contour>
    <contour>
      <point x="720" y="1052" type="line"/>
      <point x="268" y="544" type="line"/>
      <point x="159" y="544" type="line"/>
      <point x="159" y="551" type="line"/>
      <point x="267" y="551" type="line"/>
      <point x="712" y="1052" type="line"/>
    </contour>
    <contour>
      <point x="749" y="0" type="line"/>
      <point x="264" y="547" type="line"/>
      <point x="269" y="550" type="line"/>
      <point x="758" y="0" type="line"/>
    </contour>
  </outline>
</glyph>
<glyph name="Schwa" format="2">
  <advance width="1445"/>
  <unicode hex="018F"/>
  <outline>
    <contour>
      <point x="714" y="-30" type="qcurve" smooth="yes"/>
      <point x="430" y="-30"/>
      <point x="102" y="311"/>
      <point x="102" y="726" type="qcurve" smooth="yes"/>
      <point x="102" y="784" type="line"/>
      <point x="1237" y="784" type="line"/>
      <point x="1237" y="622" type="line"/>
      <point x="741" y="627" type="line"/>
      <point x="310" y="624" type="line"/>
      <point x="310" y="567" type="line" smooth="yes"/>
      <point x="310" y="353"/>
      <point x="535" y="129"/>
      <point x="714" y="129" type="qcurve" smooth="yes"/>
      <point x="912" y="129"/>
      <point x="1145" y="462"/>
      <point x="1143" y="749" type="qcurve" smooth="yes"/>
      <point x="1141" y="1056"/>
      <point x="890" y="1316"/>
      <point x="704" y="1316" type="qcurve" smooth="yes"/>
      <point x="528" y="1316"/>
      <point x="344" y="1125"/>
      <point x="318" y="984" type="qcurve" smooth="yes"/>
      <point x="315" y="968" type="line"/>
      <point x="116" y="968" type="line"/>
      <point x="118" y="982" type="line" smooth="yes"/>
      <point x="151" y="1212"/>
      <point x="450" y="1489"/>
      <point x="704" y="1489" type="qcurve" smooth="yes"/>
      <point x="983" y="1489"/>
      <point x="1330" y="1128"/>
      <point x="1330" y="759" type="qcurve" smooth="yes"/>
      <point x="1330" y="384"/>
      <point x="1010" y="-30"/>
    </contour>
  </outline>
</glyph>
<glyph name="gravecomb" format="2">
  <unicode hex="0300"/>
  <anchor x="0" y="1052" name="_top"/>
  <anchor x="0" y="1599" name="top"/>
  <outline>
    <contour>
      <point x="72" y="1215" type="line"/>
      <point x="-171" y="1546" type="line"/>
      <point x="-168" y="1549" type="line"/>
      <point x="167" y="1301" type="line"/>
    </contour>
  </outline>
</glyph>
<glyph name="dieresiscomb" format="2">
  <unicode hex="0308"/>
  <anchor x="0" y="1052" name="_GRK_top"/>
  <anchor x="0" y="1052" name="_top"/>
  <anchor x="0" y="1431" name="top"/>
  <outline>
    <contour>
      <point x="-157" y="1240" type="qcurve" smooth="yes"/>
      <point x="-157" y="1250"/>
      <point x="-144" y="1265"/>
      <point x="-132" y="1265" type="qcurve" smooth="yes"/>
      <point x="-119" y="1265"/>
      <point x="-106" y="1250"/>
      <point x="-106" y="1240" type="qcurve" smooth="yes"/>
      <point x="-106" y="1230"/>
      <point x="-119" y="1216"/>
      <point x="-132" y="1216" type="qcurve" smooth="yes"/>
      <point x="-144" y="1216"/>
      <point x="-157" y="1230"/>
    </contour>
    <contour>
      <point x="106" y="1240" type="qcurve" smooth="yes"/>
      <point x="106" y="1250"/>
      <point x="118" y="1264"/>
      <point x="131" y="1264" type="qcurve" smooth="yes"/>
      <point x="143" y="1264"/>
      <point x="156" y="1250"/>
      <point x="156" y="1240" type="qcurve" smooth="yes"/>
      <point x="156" y="1230"/>
      <point x="143" y="1216"/>
      <point x="131" y="1216" type="qcurve" smooth="yes"/>
      <point x="118" y="1216"/>
      <point x="106" y="1230"/>
    </contour>
  </outline>
</glyph>
<glyph name="hookabovecomb" format="2">
  <unicode hex="0309"/>
  <anchor x="0" y="1052" name="_top"/>
  <anchor x="0" y="1692" name="top"/>
  <outline>
    <contour>
      <point x="-70" y="1220" type="line"/>
      <point x="-70" y="1259" type="line" smooth="yes"/>
      <point x="-70" y="1311"/>
      <point x="-11" y="1381"/>
      <point x="47" y="1392" type="qcurve" smooth="yes"/>
      <point x="122" y="1405"/>
      <point x="220" y="1458"/>
      <point x="220" y="1513" type="qcurve" smooth="yes"/>
      <point x="220" y="1588"/>
      <point x="102" y="1686"/>
      <point x="9" y="1686" type="qcurve" smooth="yes"/>
      <point x="-50" y="1686"/>
      <point x="-169" y="1651"/>
      <point x="-219" y="1625" type="qcurve"/>
      <point x="-222" y="1632" type="line"/>
      <point x="-171" y="1657"/>
      <point x="-51" y="1693"/>
      <point x="9" y="1693" type="qcurve" smooth="yes"/>
      <point x="104" y="1693"/>
      <point x="227" y="1592"/>
      <point x="227" y="1513" type="qcurve" smooth="yes"/>
      <point x="227" y="1381"/>
      <point x="130" y="1251"/>
      <point x="70" y="1251" type="qcurve"/>
      <point x="70" y="1220" type="line"/>
    </contour>
  </outline>
</glyph>
<glyph name="cedillacomb" format="2">
  <unicode hex="0327"/>
  <anchor x="0" y="0" name="_bottom"/>
  <anchor x="0" y="-457" name="bottom"/>
  <outline>
    <contour>
      <point x="1" y="20" type="line"/>
      <point x="8" y="20" type="line"/>
      <point x="-16" y="-75" type="line"/>
      <point x="12" y="-88"/>
      <point x="105" y="-171"/>
      <point x="105" y="-250" type="qcurve" smooth="yes"/>
      <point x="105" y="-341"/>
      <point x="0" y="-457"/>
      <point x="-164" y="-457" type="qcurve"/>
      <point x="-171" y="-350" type="line"/>
      <point x="-49" y="-350"/>
      <point x="98" y="-304"/>
      <point x="98" y="-250" type="qcurve" smooth="yes"/>
      <point x="98" y="-201"/>
      <point x="10" y="-163"/>
      <point x="-40" y="-157" type="qcurve"/>
    </contour>
  </outline>
</glyph>
<glyph name="brevebelowcomb" format="2">
  <unicode hex="032E"/>
  <anchor x="0" y="0" name="_bottom"/>
  <anchor x="0" y="-463" name="bottom"/>
  <outline>
    <contour>
      <point x="0" y="-463" type="qcurve"/>
      <point x="-113" y="-463"/>
      <point x="-294" y="-309"/>
      <point x="-336" y="-195" type="qcurve"/>
      <point x="-236" y="-143" type="line"/>
      <point x="-201" y="-200"/>
      <point x="-79" y="-299"/>
      <point x="0" y="-299" type="qcurve"/>
      <point x="79" y="-299"/>
      <point x="201" y="-200"/>
      <point x="236" y="-143" type="qcurve"/>
      <point x="336" y="-195" type="line"/>
      <point x="294" y="-309"/>
      <point x="113" y="-463"/>
    </contour>
  </outline>
</glyph>
<glyph name="alpha" format="2">
  <advance width="873"/>
  <unicode hex="03B1"/>
  <anchor x="367" y="1052" name="top"/>
  <outline>
    <contour>
      <point x="344" y="-20" type="qcurve"/>
      <point x="257" y="-20"/>
      <point x="85" y="280"/>
      <point x="85" y="510" type="qcurve" smooth="yes"/>
      <point x="85" y="542" type="line" smooth="yes"/>
      <point x="85" y="772"/>
      <point x="240" y="1072"/>
      <point x="344" y="1072" type="qcurve"/>
      <point x="536" y="1072"/>
      <point x="660" y="776"/>
      <point x="660" y="531" type="qcurve" smooth="yes"/>
      <point x="660" y="503" type="line" smooth="yes"/>
      <point x="660" y="282"/>
      <point x="524" y="-20"/>
    </contour>
    <contour>
      <point x="384" y="132" type="qcurve" smooth="yes"/>
      <point x="508" y="132"/>
      <point x="653" y="354"/>
      <point x="653" y="503" type="qcurve" smooth="yes"/>
      <point x="653" y="531" type="line" smooth="yes"/>
      <point x="653" y="704"/>
      <point x="489" y="920"/>
      <point x="384" y="920" type="qcurve"/>
      <point x="233" y="920"/>
      <point x="92" y="703"/>
      <point x="92" y="542" type="qcurve" smooth="yes"/>
      <point x="92" y="510" type="line" smooth="yes"/>
      <point x="92" y="350"/>
      <point x="233" y="132"/>
    </contour>
    <contour>
      <point x="741" y="-30" type="qcurve" smooth="yes"/>
      <point x="697" y="-30"/>
      <point x="653" y="52"/>
      <point x="653" y="405" type="qcurve"/>
      <point x="653" y="405" type="line"/>
      <point x="653" y="562" type="line"/>
      <point x="653" y="562" type="line"/>
      <point x="653" y="1052" type="line"/>
      <point x="659" y="1052" type="line"/>
      <point x="659" y="262" type="line" smooth="yes"/>
      <point x="659" y="187"/>
      <point x="709" y="130"/>
      <point x="757" y="130" type="qcurve" smooth="yes"/>
      <point x="761" y="130"/>
      <point x="779" y="137"/>
      <point x="792" y="144" type="qcurve"/>
      <point x="792" y="-8" type="line"/>
      <point x="780" y="-17"/>
      <point x="763" y="-30"/>
    </contour>
  </outline>
</glyph>
<glyph name="beta" format="2">
  <advance width="829"/>
  <unicode hex="03B2"/>
  <outline>
    <contour>
      <point x="148" y="-416" type="line"/>
      <point x="148" y="1058" type="line" smooth="yes"/>
      <point x="148" y="1311"/>
      <point x="290" y="1556"/>
      <point x="416" y="1556" type="qcurve" smooth="yes"/>
      <point x="537" y="1556"/>
      <point x="667" y="1351"/>
      <point x="667" y="1156" type="qcurve"/>
      <point x="667" y="1002"/>
      <point x="555" y="859"/>
      <point x="481" y="834" type="qcurve"/>
      <point x="481" y="850" type="line"/>
      <point x="594" y="830"/>
      <point x="744" y="630"/>
      <point x="744" y="462" type="qcurve" smooth="yes"/>
      <point x="744" y="243"/>
      <point x="595" y="-21"/>
      <point x="467" y="-21" type="qcurve" smooth="yes"/>
      <point x="335" y="-21"/>
      <point x="185" y="108"/>
      <point x="153" y="174" type="qcurve"/>
      <point x="153" y="303" type="line"/>
      <point x="194" y="237"/>
      <point x="329" y="132"/>
      <point x="454" y="132" type="qcurve" smooth="yes"/>
      <point x="589" y="132"/>
      <point x="737" y="316"/>
      <point x="737" y="462" type="qcurve" smooth="yes"/>
      <point x="737" y="610"/>
      <point x="584" y="765"/>
      <point x="391" y="765" type="qcurve" smooth="yes"/>
      <point x="293" y="765" type="line"/>
      <point x="293" y="907" type="line"/>
      <point x="392" y="907" type="line" smooth="yes"/>
      <point x="534" y="907"/>
      <point x="660" y="1037"/>
      <point x="660" y="1156" type="qcurve" smooth="yes"/>
      <point x="660" y="1269"/>
      <point x="550" y="1404"/>
      <point x="416" y="1404" type="qcurve" smooth="yes"/>
      <point x="283" y="1404"/>
      <point x="155" y="1238"/>
      <point x="155" y="1065" type="qcurve" smooth="yes"/>
      <point x="155" y="-416" type="line"/>
    </contour>
  </outline>
</glyph>
<glyph name="gamma" format="2">
  <advance width="603"/>
  <unicode hex="03B3"/>
  <outline>
    <contour>
      <point x="299" y="-365" type="line"/>
      <point x="299" y="59" type="line"/>
      <point x="0" y="1052" type="line"/>
      <point x="8" y="1052" type="line"/>
      <point x="262" y="205" type="line" smooth="yes"/>
      <point x="274" y="165"/>
      <point x="294" y="95"/>
      <point x="300" y="75" type="qcurve"/>
      <point x="305" y="75" type="line"/>
      <point x="311" y="95"/>
      <point x="331" y="165"/>
      <point x="343" y="205" type="qcurve" smooth="yes"/>
      <point x="595" y="1052" type="line"/>
      <point x="603" y="1052" type="line"/>
      <point x="306" y="59" type="line"/>
      <point x="306" y="-365" type="line"/>
    </contour>
  </outline>
</glyph>
<glyph name="delta" format="2">
  <advance width="778"/>
  <unicode hex="03B4"/>
  <outline>
    <contour>
      <point x="383" y="-30" type="qcurve" smooth="yes"/>
      <point x="244" y="-30"/>
      <point x="85" y="231"/>
      <point x="85" y="475" type="qcurve"/>
      <point x="85" y="482" type="line"/>
      <point x="85" y="679"/>
      <point x="204" y="922"/>
      <point x="382" y="984" type="qcurve"/>
      <point x="524" y="910" type="line"/>
      <point x="312" y="900"/>
      <point x="92" y="674"/>
      <point x="92" y="483" type="qcurve"/>
      <point x="92" y="473" type="line"/>
      <point x="92" y="310"/>
      <point x="234" y="124"/>
      <point x="380" y="122" type="qcurve"/>
      <point x="523" y="121"/>
      <point x="686" y="318"/>
      <point x="686" y="475" type="qcurve"/>
      <point x="686" y="484" type="line"/>
      <point x="686" y="619"/>
      <point x="572" y="821"/>
      <point x="435" y="888" type="qcurve" smooth="yes"/>
      <point x="295" y="956"/>
      <point x="180" y="1136"/>
      <point x="180" y="1272" type="qcurve" smooth="yes"/>
      <point x="180" y="1411"/>
      <point x="278" y="1556"/>
      <point x="367" y="1556" type="qcurve" smooth="yes"/>
      <point x="438" y="1556"/>
      <point x="561" y="1518"/>
      <point x="609" y="1487" type="qcurve"/>
      <point x="580" y="1333" type="line"/>
      <point x="538" y="1364"/>
      <point x="427" y="1404"/>
      <point x="366" y="1404" type="qcurve" smooth="yes"/>
      <point x="281" y="1404"/>
      <point x="187" y="1334"/>
      <point x="187" y="1271" type="qcurve" smooth="yes"/>
      <point x="187" y="1216"/>
      <point x="342" y="1112"/>
      <point x="462" y="1042" type="qcurve" smooth="yes"/>
      <point x="589" y="968"/>
      <point x="693" y="694"/>
      <point x="693" y="481" type="qcurve"/>
      <point x="693" y="476" type="line"/>
      <point x="693" y="229"/>
      <point x="514" y="-30"/>
    </contour>
  </outline>
</glyph>
<glyph name="theta" format="2">
  <advance width="775"/>
  <unicode hex="03B8"/>
  <outline>
    <contour>
      <point x="388" y="-30" type="qcurve" smooth="yes"/>
      <point x="255" y="-30"/>
      <point x="95" y="284"/>
      <point x="95" y="654" type="qcurve" smooth="yes"/>
      <point x="95" y="802" type="line" smooth="yes"/>
      <point x="95" y="1162"/>
      <point x="254" y="1476"/>
      <point x="388" y="1476" type="qcurve" smooth="yes"/>
      <point x="521" y="1476"/>
      <point x="680" y="1162"/>
      <point x="680" y="802" type="qcurve" smooth="yes"/>
      <point x="680" y="654" type="line" smooth="yes"/>
      <point x="680" y="284"/>
      <point x="522" y="-30"/>
    </contour>
    <contour>
      <point x="390" y="122" type="qcurve" smooth="yes"/>
      <point x="525" y="122"/>
      <point x="673" y="352"/>
      <point x="673" y="614" type="qcurve" smooth="yes"/>
      <point x="673" y="836" type="line" smooth="yes"/>
      <point x="673" y="1098"/>
      <point x="522" y="1324"/>
      <point x="388" y="1324" type="qcurve" smooth="yes"/>
      <point x="256" y="1324"/>
      <point x="102" y="1098"/>
      <point x="102" y="836" type="qcurve" smooth="yes"/>
      <point x="102" y="614" type="line" smooth="yes"/>
      <point x="102" y="352"/>
      <point x="258" y="122"/>
    </contour>
    <contour>
      <point x="100" y="673" type="line"/>
      <point x="100" y="815" type="line"/>
      <point x="675" y="815" type="line"/>
      <point x="675" y="673" type="line"/>
    </contour>
  </outline>
</glyph>
<glyph name="kappa" format="2">
  <advance width="864"/>
  <unicode hex="03BA"/>
  <outline>
    <contour>
      <point x="784" y="0" type="line"/>
      <point x="301" y="550" type="line"/>
      <point x="308" y="552" type="line"/>
      <point x="793" y="0" type="line"/>
    </contour>
    <contour>
      <point x="153" y="610" type="line"/>
      <point x="241" y="610" type="line"/>
      <point x="626" y="1052" type="line"/>
      <point x="844" y="1052" type="line"/>
      <point x="329" y="465" type="line"/>
      <point x="153" y="465" type="line"/>
    </contour>
    <contour>
      <point x="155" y="1052" type="line"/>
      <point x="155" y="0" type="line"/>
      <point x="148" y="0" type="line"/>
      <point x="148" y="1052" type="line"/>
    </contour>
  </outline>
</glyph>
<glyph name="lambda" format="2">
  <advance width="576"/>
  <unicode hex="03BB"/>
  <outline>
    <contour>
      <point x="0" y="0" type="line"/>
      <point x="287" y="1042" type="line"/>
      <point x="231" y="1251" type="line" smooth="yes"/>
      <point x="189" y="1409"/>
      <point x="156" y="1469"/>
      <point x="124" y="1469" type="qcurve" smooth="yes"/>
      <point x="114" y="1469"/>
      <point x="93" y="1460"/>
      <point x="80" y="1448" type="qcurve"/>
      <point x="80" y="1455" type="line"/>
      <point x="90" y="1465"/>
      <point x="113" y="1476"/>
      <point x="124" y="1476" type="qcurve" smooth="yes"/>
      <point x="159" y="1476"/>
      <point x="194" y="1412"/>
      <point x="237" y="1252" type="qcurve" smooth="yes"/>
      <point x="576" y="0" type="line"/>
      <point x="569" y="0" type="line"/>
      <point x="339" y="852" type="line" smooth="yes"/>
      <point x="324" y="909"/>
      <point x="305" y="978"/>
      <point x="292" y="1027" type="qcurve"/>
      <point x="287" y="1027" type="line"/>
      <point x="275" y="978"/>
      <point x="252" y="893"/>
      <point x="241" y="852" type="qcurve" smooth="yes"/>
      <point x="7" y="0" type="line"/>
    </contour>
  </outline>
</glyph>
<glyph name="mu" format="2">
  <advance width="842"/>
  <unicode hex="03BC"/>
  <outline>
    <contour>
      <point x="148" y="-416" type="line"/>
      <point x="148" y="1052" type="line"/>
      <point x="152" y="1052" type="line"/>
      <point x="152" y="-416" type="line"/>
    </contour>
    <contour>
      <point x="150" y="262" type="line"/>
      <point x="203" y="191"/>
      <point x="327" y="132"/>
      <point x="398" y="132" type="qcurve" smooth="yes"/>
      <point x="490" y="132"/>
      <point x="632" y="268"/>
      <point x="632" y="357" type="qcurve" smooth="yes"/>
      <point x="632" y="1052" type="line"/>
      <point x="636" y="1052" type="line"/>
      <point x="636" y="275" type="line" smooth="yes"/>
      <point x="636" y="200"/>
      <point x="682" y="143"/>
      <point x="727" y="143" type="qcurve" smooth="yes"/>
      <point x="747" y="143"/>
      <point x="783" y="150"/>
      <point x="800" y="157" type="qcurve"/>
      <point x="800" y="5" type="line"/>
      <point x="791" y="-4"/>
      <point x="767" y="-17"/>
      <point x="747" y="-17" type="qcurve" smooth="yes"/>
      <point x="695" y="-17"/>
      <point x="638" y="59"/>
      <point x="630" y="130" type="qcurve"/>
      <point x="624" y="130" type="line"/>
      <point x="590" y="68"/>
      <point x="463" y="-20"/>
      <point x="380" y="-20" type="qcurve" smooth="yes"/>
      <point x="302" y="-20"/>
      <point x="182" y="49"/>
      <point x="150" y="87" type="qcurve"/>
    </contour>
  </outline>
</glyph>
<glyph name="xi" format="2">
  <advance width="800"/>
  <unicode hex="03BE"/>
  <outline>
    <contour>
      <point x="529" y="-348" type="line"/>
      <point x="552" y="-295"/>
      <point x="583" y="-207"/>
      <point x="583" y="-155" type="qcurve"/>
      <point x="583" y="-86"/>
      <point x="521" y="32"/>
      <point x="432" y="52" type="qcurve" smooth="yes"/>
      <point x="399" y="60" type="line" smooth="yes"/>
      <point x="247" y="97"/>
      <point x="85" y="263"/>
      <point x="85" y="390" type="qcurve" smooth="yes"/>
      <point x="85" y="517"/>
      <point x="246" y="724"/>
      <point x="408" y="777" type="qcurve"/>
      <point x="408" y="753" type="line"/>
      <point x="292" y="801"/>
      <point x="135" y="945"/>
      <point x="133" y="1058" type="qcurve"/>
      <point x="133" y="1187"/>
      <point x="271" y="1353"/>
      <point x="462" y="1393" type="qcurve"/>
      <point x="462" y="1384" type="line"/>
      <point x="91" y="1384" type="line"/>
      <point x="91" y="1536" type="line"/>
      <point x="726" y="1536" type="line"/>
      <point x="726" y="1384" type="line"/>
      <point x="370" y="1384"/>
      <point x="141" y="1221"/>
      <point x="141" y="1082" type="qcurve" smooth="yes"/>
      <point x="141" y="975"/>
      <point x="334" y="846"/>
      <point x="484" y="846" type="qcurve" smooth="yes"/>
      <point x="664" y="846" type="line"/>
      <point x="664" y="694" type="line"/>
      <point x="484" y="694" type="line" smooth="yes"/>
      <point x="299" y="694"/>
      <point x="92" y="512"/>
      <point x="92" y="390" type="qcurve" smooth="yes"/>
      <point x="92" y="266"/>
      <point x="250" y="102"/>
      <point x="404" y="66" type="qcurve" smooth="yes"/>
      <point x="451" y="55" type="line" smooth="yes"/>
      <point x="630" y="13"/>
      <point x="761" y="-78"/>
      <point x="761" y="-155" type="qcurve" smooth="yes"/>
      <point x="761" y="-222"/>
      <point x="723" y="-313"/>
      <point x="699" y="-348" type="qcurve"/>
    </contour>
  </outline>
</glyph>
<glyph name="pi" format="2">
  <advance width="819"/>
  <unicode hex="03C0"/>
  <outline>
    <contour>
      <point x="0" y="900" type="line"/>
      <point x="0" y="1052" type="line"/>
      <point x="769" y="1052" type="line"/>
      <point x="769" y="900" type="line"/>
    </contour>
    <contour>
      <point x="163" y="0" type="line"/>
      <point x="163" y="971" type="line"/>
      <point x="170" y="971" type="line"/>
      <point x="170" y="0" type="line"/>
    </contour>
    <contour>
      <point x="681" y="-30" type="qcurve" smooth="yes"/>
      <point x="636" y="-30"/>
      <point x="598" y="39"/>
      <point x="598" y="190" type="qcurve"/>
      <point x="598" y="971" type="line"/>
      <point x="605" y="971" type="line"/>
      <point x="605" y="229" type="line"/>
      <point x="605" y="161"/>
      <point x="643" y="130"/>
      <point x="682" y="130" type="qcurve" smooth="yes"/>
      <point x="713" y="130"/>
      <point x="755" y="139"/>
      <point x="766" y="144" type="qcurve"/>
      <point x="766" y="-8" type="line"/>
      <point x="748" y="-17"/>
      <point x="712" y="-30"/>
    </contour>
  </outline>
</glyph>
<glyph name="rho" format="2">
  <advance width="808"/>
  <unicode hex="03C1"/>
  <outline>
    <contour>
      <point x="148" y="-416" type="line"/>
      <point x="148" y="541" type="line" smooth="yes"/>
      <point x="148" y="788"/>
      <point x="303" y="1072"/>
      <point x="435" y="1072" type="qcurve" smooth="yes"/>
      <point x="581" y="1072"/>
      <point x="723" y="782"/>
      <point x="723" y="552" type="qcurve" smooth="yes"/>
      <point x="723" y="520" type="line" smooth="yes"/>
      <point x="723" y="290"/>
      <point x="575" y="-20"/>
      <point x="453" y="-20" type="qcurve" smooth="yes"/>
      <point x="349" y="-20"/>
      <point x="204" y="62"/>
      <point x="153" y="123" type="qcurve"/>
      <point x="153" y="311" type="line"/>
      <point x="207" y="217"/>
      <point x="340" y="132"/>
      <point x="426" y="132" type="qcurve" smooth="yes"/>
      <point x="576" y="132"/>
      <point x="716" y="360"/>
      <point x="716" y="520" type="qcurve" smooth="yes"/>
      <point x="716" y="552" type="line" smooth="yes"/>
      <point x="716" y="712"/>
      <point x="586" y="920"/>
      <point x="436" y="920" type="qcurve" smooth="yes"/>
      <point x="316" y="920"/>
      <point x="155" y="750"/>
      <point x="155" y="546" type="qcurve" smooth="yes"/>
      <point x="155" y="-416" type="line"/>
    </contour>
  </outline>
</glyph>
<glyph name="finalsigma" format="2">
  <advance width="687"/>
  <unicode hex="03C2"/>
  <outline>
    <contour>
      <point x="498" y="-348" type="line"/>
      <point x="522" y="-295"/>
      <point x="552" y="-196"/>
      <point x="552" y="-143" type="qcurve" smooth="yes"/>
      <point x="552" y="-53"/>
      <point x="484" y="37"/>
      <point x="382" y="68" type="qcurve" smooth="yes"/>
      <point x="339" y="81" type="line" smooth="yes"/>
      <point x="202" y="122"/>
      <point x="85" y="287"/>
      <point x="85" y="505" type="qcurve" smooth="yes"/>
      <point x="85" y="542" type="line" smooth="yes"/>
      <point x="85" y="772"/>
      <point x="247" y="1082"/>
      <point x="395" y="1082" type="qcurve" smooth="yes"/>
      <point x="534" y="1082"/>
      <point x="643" y="851"/>
      <point x="643" y="715" type="qcurve" smooth="yes"/>
      <point x="643" y="710" type="line"/>
      <point x="636" y="710" type="line"/>
      <point x="636" y="715" type="line" smooth="yes"/>
      <point x="636" y="800"/>
      <point x="518" y="930"/>
      <point x="395" y="930" type="qcurve" smooth="yes"/>
      <point x="251" y="930"/>
      <point x="92" y="746"/>
      <point x="92" y="542" type="qcurve" smooth="yes"/>
      <point x="92" y="505" type="line" smooth="yes"/>
      <point x="92" y="289"/>
      <point x="205" y="128"/>
      <point x="342" y="87" type="qcurve" smooth="yes"/>
      <point x="386" y="74" type="line" smooth="yes"/>
      <point x="487" y="44"/>
      <point x="559" y="-49"/>
      <point x="559" y="-143" type="qcurve" smooth="yes"/>
      <point x="559" y="-186"/>
      <point x="534" y="-278"/>
      <point x="505" y="-348" type="qcurve"/>
    </contour>
  </outline>
</glyph>
<glyph name="upsilon" format="2">
  <advance width="949"/>
  <unicode hex="03C5"/>
  <anchor x="386" y="1052" name="top"/>
  <outline>
    <contour>
      <point x="476" y="-20" type="qcurve" smooth="yes"/>
      <point x="298" y="-20"/>
      <point x="138" y="201"/>
      <point x="138" y="403" type="qcurve" smooth="yes"/>
      <point x="138" y="1052" type="line"/>
      <point x="145" y="1052" type="line"/>
      <point x="145" y="401" type="line" smooth="yes"/>
      <point x="145" y="275"/>
      <point x="261" y="136"/>
      <point x="385" y="136" type="qcurve" smooth="yes"/>
      <point x="509" y="136"/>
      <point x="627" y="275"/>
      <point x="625" y="401" type="qcurve" smooth="yes"/>
      <point x="625" y="1052" type="line"/>
      <point x="811" y="1052" type="line"/>
      <point x="811" y="403" type="line" smooth="yes"/>
      <point x="811" y="201"/>
      <point x="655" y="-20"/>
    </contour>
  </outline>
</glyph>
<glyph name="phi" format="2">
  <advance width="894"/>
  <unicode hex="03C6"/>
  <outline>
    <contour>
      <point x="445" y="-416" type="line"/>
      <point x="445" y="44" type="line"/>
      <point x="445" y="85" type="line"/>
      <point x="445" y="981" type="line"/>
      <point x="445" y="1022" type="line"/>
      <point x="445" y="1536" type="line"/>
      <point x="452" y="1536" type="line"/>
      <point x="452" y="1022" type="line"/>
      <point x="452" y="979" type="line"/>
      <point x="452" y="85" type="line"/>
      <point x="452" y="44" type="line"/>
      <point x="452" y="-416" type="line"/>
    </contour>
    <contour>
      <point x="446" y="-32" type="line" smooth="yes"/>
      <point x="273" y="-32"/>
      <point x="82" y="267"/>
      <point x="82" y="510" type="qcurve" smooth="yes"/>
      <point x="82" y="542" type="line" smooth="yes"/>
      <point x="82" y="785"/>
      <point x="266" y="1082"/>
      <point x="446" y="1082" type="qcurve" smooth="yes"/>
      <point x="451" y="1082" type="line" smooth="yes"/>
      <point x="628" y="1082"/>
      <point x="812" y="785"/>
      <point x="812" y="542" type="qcurve" smooth="yes"/>
      <point x="812" y="510" type="line" smooth="yes"/>
      <point x="812" y="267"/>
      <point x="625" y="-32"/>
      <point x="451" y="-32" type="qcurve" smooth="yes"/>
    </contour>
    <contour>
      <point x="446" y="120" type="qcurve" smooth="yes"/>
      <point x="451" y="120" type="line" smooth="yes"/>
      <point x="645" y="120"/>
      <point x="805" y="342"/>
      <point x="805" y="510" type="qcurve" smooth="yes"/>
      <point x="805" y="542" type="line" smooth="yes"/>
      <point x="805" y="710"/>
      <point x="646" y="930"/>
      <point x="451" y="930" type="qcurve" smooth="yes"/>
      <point x="446" y="930" type="line" smooth="yes"/>
      <point x="248" y="930"/>
      <point x="89" y="710"/>
      <point x="89" y="542" type="qcurve" smooth="yes"/>
      <point x="89" y="510" type="line" smooth="yes"/>
      <point x="89" y="342"/>
      <point x="252" y="120"/>
    </contour>
  </outline>
</glyph>
<glyph name="omega" format="2">
  <advance width="1022"/>
  <unicode hex="03C9"/>
  <anchor x="512" y="1052" name="top"/>
  <outline>
    <contour>
      <point x="345" y="-30" type="qcurve"/>
      <point x="239" y="-30"/>
      <point x="95" y="217"/>
      <point x="95" y="471" type="qcurve"/>
      <point x="95" y="656"/>
      <point x="218" y="944"/>
      <point x="290" y="1052" type="qcurve"/>
      <point x="296" y="1052" type="line"/>
      <point x="224" y="943"/>
      <point x="102" y="655"/>
      <point x="102" y="471" type="qcurve"/>
      <point x="102" y="289"/>
      <point x="200" y="126"/>
      <point x="306" y="126" type="qcurve"/>
      <point x="409" y="126"/>
      <point x="509" y="296"/>
      <point x="509" y="408" type="qcurve" smooth="yes"/>
      <point x="509" y="722" type="line"/>
      <point x="516" y="722" type="line"/>
      <point x="516" y="408" type="line" smooth="yes"/>
      <point x="516" y="296"/>
      <point x="612" y="126"/>
      <point x="717" y="126" type="qcurve"/>
      <point x="822" y="126"/>
      <point x="920" y="289"/>
      <point x="920" y="471" type="qcurve"/>
      <point x="920" y="655"/>
      <point x="816" y="945"/>
      <point x="721" y="1052" type="qcurve"/>
      <point x="727" y="1052" type="line"/>
      <point x="824" y="945"/>
      <point x="927" y="656"/>
      <point x="927" y="471" type="qcurve" smooth="yes"/>
      <point x="927" y="219"/>
      <point x="784" y="-30"/>
      <point x="672" y="-30" type="qcurve"/>
      <point x="602" y="-30"/>
      <point x="532" y="54"/>
      <point x="501" y="182" type="qcurve"/>
      <point x="517" y="182" type="line"/>
      <point x="496" y="54"/>
      <point x="420" y="-30"/>
    </contour>
  </outline>
</glyph>
<glyph name="kaisymbol" format="2">
  <advance width="935"/>
  <unicode hex="03D7"/>
  <outline>
    <contour>
      <point x="166" y="0" type="line"/>
      <point x="166" y="1052" type="line"/>
      <point x="173" y="1052" type="line"/>
      <point x="173" y="0" type="line"/>
    </contour>
    <contour>
      <point x="170" y="465" type="line"/>
      <point x="170" y="610" type="line"/>
      <point x="337" y="610" type="line"/>
      <point x="722" y="1052" type="line"/>
      <point x="940" y="1052" type="line"/>
      <point x="430" y="470" type="line"/>
      <point x="893" y="-51" type="line"/>
      <point x="266" y="-590" type="line"/>
      <point x="148" y="-454" type="line"/>
      <point x="775" y="74" type="line"/>
      <point x="426" y="465" type="line"/>
    </contour>
  </outline>
</glyph>
<glyph name="be" format="2">
  <advance width="806"/>
  <unicode hex="0431"/>
  <outline>
    <contour>
      <point x="102" y="535" type="qcurve" smooth="yes"/>
      <point x="102" y="526" type="line" smooth="yes"/>
      <point x="102" y="335"/>
      <point x="256" y="122"/>
      <point x="408" y="122" type="qcurve" smooth="yes"/>
      <point x="560" y="122"/>
      <point x="714" y="335"/>
      <point x="714" y="490" type="qcurve" smooth="yes"/>
      <point x="714" y="522" type="line" smooth="yes"/>
      <point x="714" y="677"/>
      <point x="560" y="890"/>
      <point x="408" y="890" type="qcurve" smooth="yes"/>
      <point x="256" y="890"/>
      <point x="102" y="677"/>
    </contour>
    <contour>
      <point x="394" y="1042" type="qcurve" smooth="yes"/>
      <point x="543" y="1042"/>
      <point x="721" y="745"/>
      <point x="721" y="522" type="qcurve" smooth="yes"/>
      <point x="721" y="490" type="line" smooth="yes"/>
      <point x="721" y="261"/>
      <point x="549" y="-30"/>
      <point x="407" y="-30" type="qcurve" smooth="yes"/>
      <point x="260" y="-30"/>
      <point x="95" y="263"/>
      <point x="95" y="525" type="qcurve" smooth="yes"/>
      <point x="95" y="631" type="line" smooth="yes"/>
      <point x="95" y="999"/>
      <point x="244" y="1316"/>
      <point x="418" y="1359" type="qcurve" smooth="yes"/>
      <point x="483" y="1375"/>
      <point x="522" y="1475"/>
      <point x="528" y="1536" type="qcurve"/>
      <point x="692" y="1536" type="line"/>
      <point x="682" y="1431"/>
      <point x="543" y="1383"/>
      <point x="418" y="1352" type="qcurve" smooth="yes"/>
      <point x="247" y="1308"/>
      <point x="106" y="1008"/>
      <point x="102" y="687" type="qcurve"/>
      <point x="106" y="686" type="line"/>
      <point x="147" y="906"/>
      <point x="294" y="1042"/>
    </contour>
  </outline>
</glyph>
<glyph name="ghe" format="2">
  <advance width="682"/>
  <unicode hex="0433"/>
  <anchor x="394" y="1052" name="top"/>
  <outline>
    <contour>
      <point x="148" y="1052" type="line"/>
      <point x="652" y="1052" type="line"/>
      <point x="652" y="907" type="line"/>
      <point x="152" y="907" type="line"/>
      <point x="152" y="0" type="line"/>
      <point x="148" y="0" type="line"/>
    </contour>
  </outline>
</glyph>
<glyph name="de" format="2">
  <advance width="811"/>
  <unicode hex="0434"/>
  <outline>
    <contour>
      <point x="784" y="-270" type="line"/>
      <point x="784" y="0" type="line"/>
      <point x="17" y="0" type="line"/>
      <point x="17" y="-270" type="line"/>
      <point x="10" y="-270" type="line"/>
      <point x="10" y="145" type="line"/>
      <point x="791" y="145" type="line"/>
      <point x="791" y="-270" type="line"/>
    </contour>
    <contour>
      <point x="242" y="907" type="line"/>
      <point x="225" y="509" type="line" smooth="yes"/>
      <point x="218" y="336"/>
      <point x="183" y="173"/>
      <point x="148" y="79" type="qcurve"/>
      <point x="142" y="79" type="line"/>
      <point x="176" y="173"/>
      <point x="212" y="340"/>
      <point x="219" y="518" type="qcurve" smooth="yes"/>
      <point x="241" y="1052" type="line"/>
      <point x="636" y="1052" type="line"/>
      <point x="636" y="79" type="line"/>
      <point x="629" y="79" type="line"/>
      <point x="629" y="907" type="line"/>
    </contour>
  </outline>
</glyph>
<glyph name="zhe" format="2">
  <advance width="1395"/>
  <unicode hex="0436"/>
  <anchor x="696" y="1052" name="top"/>
  <anchor x="1316" y="0" name="cy_descender"/>
  <outline>
    <contour>
      <point x="700" y="0" type="line"/>
      <point x="693" y="0" type="line"/>
      <point x="693" y="1052" type="line"/>
      <point x="700" y="1052" type="line"/>
    </contour>
    <contour>
      <point x="1313" y="0" type="line"/>
      <point x="893" y="589" type="line"/>
      <point x="900" y="590" type="line"/>
      <point x="1321" y="0" type="line"/>
    </contour>
    <contour>
      <point x="695" y="610" type="line"/>
      <point x="786" y="610" type="line"/>
      <point x="1094" y="1052" type="line"/>
      <point x="1298" y="1052" type="line"/>
      <point x="886" y="465" type="line"/>
      <point x="695" y="465" type="line"/>
    </contour>
    <contour>
      <point x="80" y="0" type="line"/>
      <point x="72" y="0" type="line"/>
      <point x="493" y="591" type="line"/>
      <point x="500" y="589" type="line"/>
    </contour>
    <contour>
      <point x="695" y="610" type="line"/>
      <point x="695" y="465" type="line"/>
      <point x="505" y="465" type="line"/>
      <point x="93" y="1052" type="line"/>
      <point x="299" y="1052" type="line"/>
      <point x="604" y="610" type="line"/>
    </contour>
  </outline>
</glyph>
<glyph name="ze" format="2">
  <advance width="736"/>
  <unicode hex="0437"/>
  <anchor x="380" y="-1" name="bottom"/>
  <outline>
    <contour>
      <point x="359" y="-30" type="qcurve" smooth="yes"/>
      <point x="222" y="-30"/>
      <point x="89" y="197"/>
      <point x="89" y="337" type="qcurve" smooth="yes"/>
      <point x="89" y="342" type="line"/>
      <point x="93" y="342" type="line"/>
      <point x="93" y="337" type="line" smooth="yes"/>
      <point x="93" y="245"/>
      <point x="211" y="122"/>
      <point x="362" y="122" type="qcurve" smooth="yes"/>
      <point x="486" y="122"/>
      <point x="622" y="222"/>
      <point x="622" y="309" type="qcurve" smooth="yes"/>
      <point x="622" y="379"/>
      <point x="528" y="463"/>
      <point x="426" y="463" type="qcurve" smooth="yes"/>
      <point x="241" y="463" type="line"/>
      <point x="241" y="607" type="line"/>
      <point x="396" y="607" type="line" smooth="yes"/>
      <point x="489" y="607"/>
      <point x="592" y="680"/>
      <point x="592" y="761" type="qcurve" smooth="yes"/>
      <point x="592" y="842"/>
      <point x="476" y="930"/>
      <point x="374" y="930" type="qcurve" smooth="yes"/>
      <point x="244" y="930"/>
      <point x="113" y="809"/>
      <point x="113" y="715" type="qcurve" smooth="yes"/>
      <point x="113" y="710" type="line"/>
      <point x="109" y="710" type="line"/>
      <point x="109" y="715" type="line" smooth="yes"/>
      <point x="109" y="882"/>
      <point x="242" y="1082"/>
      <point x="366" y="1082" type="qcurve" smooth="yes"/>
      <point x="486" y="1082"/>
      <point x="597" y="916"/>
      <point x="597" y="760" type="qcurve" smooth="yes"/>
      <point x="597" y="695"/>
      <point x="525" y="579"/>
      <point x="458" y="544" type="qcurve"/>
      <point x="458" y="541" type="line"/>
      <point x="523" y="525"/>
      <point x="626" y="404"/>
      <point x="626" y="309" type="qcurve" smooth="yes"/>
      <point x="626" y="145"/>
      <point x="474" y="-30"/>
    </contour>
  </outline>
</glyph>
<glyph name="ka" format="2">
  <advance width="861"/>
  <unicode hex="043A"/>
  <guideline x="241" y="553" angle="90.0" identifier="lmgRx0QBdK"/>
  <anchor x="406" y="1052" name="top"/>
  <anchor x="758" y="0" name="cy_descender"/>
  <outline>
    <contour>
      <point x="755" y="0" type="line"/>
      <point x="311" y="505" type="line"/>
      <point x="314" y="507" type="line"/>
      <point x="761" y="0" type="line"/>
    </contour>
    <contour>
      <point x="150" y="610" type="line"/>
      <point x="238" y="610" type="line"/>
      <point x="623" y="1052" type="line"/>
      <point x="841" y="1052" type="line"/>
      <point x="326" y="465" type="line"/>
      <point x="150" y="465" type="line"/>
    </contour>
    <contour>
      <point x="152" y="1052" type="line"/>
      <point x="152" y="0" type="line"/>
      <point x="148" y="0" type="line"/>
      <point x="148" y="1052" type="line"/>
    </contour>
  </outline>
</glyph>
<glyph name="em" format="2">
  <advance width="1031"/>
  <unicode hex="043C"/>
  <outline>
    <contour>
      <point x="148" y="0" type="line"/>
      <point x="148" y="1052" type="line"/>
      <point x="168" y="1052" type="line"/>
      <point x="465" y="223" type="line" smooth="yes"/>
      <point x="486" y="165"/>
      <point x="500" y="121"/>
      <point x="510" y="97" type="qcurve"/>
      <point x="521" y="97" type="line"/>
      <point x="530" y="121"/>
      <point x="545" y="164"/>
      <point x="566" y="222" type="qcurve" smooth="yes"/>
      <point x="864" y="1052" type="line"/>
      <point x="883" y="1052" type="line"/>
      <point x="883" y="0" type="line"/>
      <point x="876" y="0" type="line"/>
      <point x="876" y="910" type="line" smooth="yes"/>
      <point x="876" y="969"/>
      <point x="876" y="1025"/>
      <point x="876" y="1045" type="qcurve"/>
      <point x="868" y="1045" type="line"/>
      <point x="861" y="1025"/>
      <point x="843" y="971"/>
      <point x="822" y="913" type="qcurve" smooth="yes"/>
      <point x="525" y="90" type="line"/>
      <point x="506" y="90" type="line"/>
      <point x="205" y="927" type="line" smooth="yes"/>
      <point x="189" y="972"/>
      <point x="172" y="1025"/>
      <point x="164" y="1045" type="qcurve"/>
      <point x="155" y="1045" type="line"/>
      <point x="155" y="1025"/>
      <point x="155" y="975"/>
      <point x="155" y="922" type="qcurve" smooth="yes"/>
      <point x="155" y="0" type="line"/>
    </contour>
  </outline>
</glyph>
<glyph name="en" format="2">
  <advance width="774"/>
  <unicode hex="043D"/>
  <anchor x="624" y="0" name="cy_descender"/>
  <outline>
    <contour>
      <point x="148" y="0" type="line"/>
      <point x="148" y="1052" type="line"/>
      <point x="152" y="1052" type="line"/>
      <point x="152" y="0" type="line"/>
    </contour>
    <contour>
      <point x="150" y="465" type="line"/>
      <point x="150" y="610" type="line"/>
      <point x="624" y="610" type="line"/>
      <point x="624" y="465" type="line"/>
    </contour>
    <contour>
      <point x="622" y="0" type="line"/>
      <point x="622" y="1052" type="line"/>
      <point x="626" y="1052" type="line"/>
      <point x="626" y="0" type="line"/>
    </contour>
  </outline>
</glyph>
<glyph name="hard" format="2">
  <advance width="862"/>
  <unicode hex="044A"/>
  <outline>
    <contour>
      <point x="320" y="0" type="line"/>
      <point x="320" y="907" type="line"/>
      <point x="30" y="907" type="line"/>
      <point x="30" y="1052" type="line"/>
      <point x="327" y="1052" type="line"/>
      <point x="327" y="145" type="line"/>
      <point x="569" y="145" type="line" smooth="yes"/>
      <point x="694" y="145"/>
      <point x="795" y="260"/>
      <point x="795" y="348" type="qcurve" smooth="yes"/>
      <point x="795" y="435"/>
      <point x="694" y="547"/>
      <point x="569" y="547" type="qcurve" smooth="yes"/>
      <point x="322" y="547" type="line"/>
      <point x="322" y="692" type="line"/>
      <point x="529" y="692" type="line" smooth="yes"/>
      <point x="659" y="692"/>
      <point x="802" y="506"/>
      <point x="802" y="348" type="qcurve" smooth="yes"/>
      <point x="802" y="190"/>
      <point x="659" y="0"/>
      <point x="529" y="0" type="qcurve" smooth="yes"/>
    </contour>
  </outline>
</glyph>
<glyph name="soft" format="2">
  <advance width="690"/>
  <unicode hex="044C"/>
  <outline>
    <contour>
      <point x="148" y="0" type="line"/>
      <point x="148" y="1052" type="line"/>
      <point x="155" y="1052" type="line"/>
      <point x="155" y="145" type="line"/>
      <point x="397" y="145" type="line" smooth="yes"/>
      <point x="522" y="145"/>
      <point x="623" y="260"/>
      <point x="623" y="348" type="qcurve" smooth="yes"/>
      <point x="623" y="435"/>
      <point x="522" y="547"/>
      <point x="397" y="547" type="qcurve" smooth="yes"/>
      <point x="153" y="547" type="line"/>
      <point x="153" y="692" type="line"/>
      <point x="357" y="692" type="line" smooth="yes"/>
      <point x="487" y="692"/>
      <point x="630" y="506"/>
      <point x="630" y="348" type="qcurve" smooth="yes"/>
      <point x="630" y="190"/>
      <point x="487" y="0"/>
      <point x="357" y="0" type="qcurve" smooth="yes"/>
    </contour>
  </outline>
</glyph>
<glyph name="ya" format="2">
  <advance width="825"/>
  <unicode hex="044F"/>
  <anchor x="468" y="1052" name="top"/>
  <outline>
    <contour>
      <point x="53" y="0" type="line"/>
      <point x="365" y="444" type="line"/>
      <point x="368" y="437" type="line"/>
      <point x="61" y="0" type="line"/>
    </contour>
    <contour>
      <point x="153" y="716" type="qcurve" smooth="yes"/>
      <point x="153" y="869"/>
      <point x="263" y="1052"/>
      <point x="375" y="1052" type="qcurve" smooth="yes"/>
      <point x="645" y="1052" type="line"/>
      <point x="645" y="0" type="line"/>
      <point x="638" y="0" type="line"/>
      <point x="638" y="907" type="line"/>
      <point x="375" y="907" type="line" smooth="yes"/>
      <point x="256" y="907"/>
      <point x="160" y="799"/>
      <point x="160" y="716" type="qcurve" smooth="yes"/>
      <point x="160" y="633"/>
      <point x="255" y="529"/>
      <point x="375" y="529" type="qcurve" smooth="yes"/>
      <point x="641" y="529" type="line"/>
      <point x="641" y="384" type="line"/>
      <point x="393" y="384" type="line"/>
      <point x="375" y="396" type="line"/>
      <point x="257" y="396"/>
      <point x="153" y="569"/>
    </contour>
  </outline>
</glyph>
<glyph name="ieukran" format="2">
  <advance width="712"/>
  <unicode hex="0454"/>
  <guideline x="180" y="548" angle="90.0" identifier="n4jm0tBg3Y"/>
  <outline>
    <contour>
      <point x="85" y="510" type="qcurve" smooth="yes"/>
      <point x="85" y="542" type="line" smooth="yes"/>
      <point x="85" y="791"/>
      <point x="242" y="1082"/>
      <point x="373" y="1082" type="qcurve" smooth="yes"/>
      <point x="504" y="1082"/>
      <point x="639" y="855"/>
      <point x="639" y="715" type="qcurve" smooth="yes"/>
      <point x="639" y="710" type="line"/>
      <point x="635" y="710" type="line"/>
      <point x="635" y="715" type="line" smooth="yes"/>
      <point x="635" y="797"/>
      <point x="512" y="930"/>
      <point x="377" y="930" type="qcurve" smooth="yes"/>
      <point x="242" y="930"/>
      <point x="89" y="717"/>
      <point x="89" y="564" type="qcurve" smooth="yes"/>
      <point x="89" y="500" type="line" smooth="yes"/>
      <point x="89" y="337"/>
      <point x="241" y="122"/>
      <point x="381" y="122" type="qcurve" smooth="yes"/>
      <point x="516" y="122"/>
      <point x="639" y="252"/>
      <point x="639" y="337" type="qcurve" smooth="yes"/>
      <point x="639" y="342" type="line"/>
      <point x="643" y="342" type="line"/>
      <point x="643" y="337" type="line" smooth="yes"/>
      <point x="643" y="197"/>
      <point x="506" y="-30"/>
      <point x="376" y="-30" type="qcurve" smooth="yes"/>
      <point x="243" y="-30"/>
      <point x="85" y="260"/>
    </contour>
    <contour>
      <point x="88" y="610" type="line"/>
      <point x="530" y="610" type="line"/>
      <point x="530" y="465" type="line"/>
      <point x="88" y="465" type="line"/>
    </contour>
  </outline>
</glyph>
<glyph name="lje" format="2">
  <advance width="1145"/>
  <unicode hex="0459"/>
  <outline>
    <contour>
      <point x="10" y="-4" type="qcurve"/>
      <point x="10" y="152" type="line"/>
      <point x="27" y="145"/>
      <point x="64" y="139"/>
      <point x="86" y="139" type="qcurve" smooth="yes"/>
      <point x="165" y="139"/>
      <point x="213" y="301"/>
      <point x="223" y="516" type="qcurve" smooth="yes"/>
      <point x="246" y="1052" type="line"/>
      <point x="610" y="1052" type="line"/>
      <point x="610" y="145" type="line"/>
      <point x="852" y="145" type="line" smooth="yes"/>
      <point x="977" y="145"/>
      <point x="1078" y="260"/>
      <point x="1078" y="348" type="qcurve" smooth="yes"/>
      <point x="1078" y="435"/>
      <point x="977" y="547"/>
      <point x="852" y="547" type="qcurve" smooth="yes"/>
      <point x="605" y="547" type="line"/>
      <point x="605" y="692" type="line"/>
      <point x="812" y="692" type="line" smooth="yes"/>
      <point x="942" y="692"/>
      <point x="1085" y="506"/>
      <point x="1085" y="348" type="qcurve" smooth="yes"/>
      <point x="1085" y="190"/>
      <point x="942" y="0"/>
      <point x="812" y="0" type="qcurve" smooth="yes"/>
      <point x="603" y="0" type="line"/>
      <point x="603" y="907" type="line"/>
      <point x="247" y="907" type="line"/>
      <point x="229" y="490" type="line" smooth="yes"/>
      <point x="215" y="177"/>
      <point x="182" y="-22"/>
      <point x="111" y="-22" type="qcurve" smooth="yes"/>
      <point x="76" y="-22"/>
      <point x="29" y="-13"/>
    </contour>
  </outline>
</glyph>
<glyph name="kaverticalstrokecyr" format="2">
  <advance width="873"/>
  <unicode hex="049D"/>
  <guideline x="547" y="651" angle="90.0" identifier="ATaXbxe4rK"/>
  <outline>
    <contour>
      <point x="292" y="852" type="line"/>
      <point x="292" y="200" type="line"/>
      <point x="285" y="200" type="line"/>
      <point x="285" y="852" type="line"/>
    </contour>
    <contour>
      <point x="155" y="1052" type="line"/>
      <point x="155" y="0" type="line"/>
      <point x="148" y="0" type="line"/>
      <point x="148" y="1052" type="line"/>
    </contour>
    <contour>
      <point x="782" y="0" type="line"/>
      <point x="337" y="544" type="line"/>
      <point x="343" y="546" type="line"/>
      <point x="791" y="0" type="line"/>
    </contour>
    <contour>
      <point x="288" y="610" type="line"/>
      <point x="292" y="610" type="line"/>
      <point x="647" y="1052" type="line"/>
      <point x="861" y="1052" type="line"/>
      <point x="379" y="465" type="line"/>
      <point x="288" y="465" type="line"/>
    </contour>
  </outline>
</glyph>
<glyph name="kabashkircyr" format="2">
  <advance width="736"/>
  <unicode hex="04A1"/>
  <outline>
    <contour>
      <point x="742" y="0" type="line"/>
      <point x="334" y="540" type="line"/>
      <point x="339" y="544" type="line"/>
      <point x="751" y="0" type="line"/>
    </contour>
    <contour>
      <point x="243" y="545" type="line"/>
      <point x="336" y="545" type="line"/>
      <point x="711" y="1052" type="line"/>
      <point x="718" y="1052" type="line"/>
      <point x="339" y="538" type="line"/>
      <point x="243" y="538" type="line"/>
    </contour>
    <contour>
      <point x="247" y="1052" type="line"/>
      <point x="247" y="0" type="line"/>
      <point x="240" y="0" type="line"/>
      <point x="240" y="907" type="line"/>
      <point x="30" y="907" type="line"/>
      <point x="30" y="1052" type="line"/>
    </contour>
  </outline>
</glyph>
<glyph name="ustraight" format="2">
  <advance width="602"/>
  <unicode hex="04AF"/>
  <outline>
    <contour>
      <point x="289" y="-416" type="line"/>
      <point x="289" y="0" type="line"/>
      <point x="0" y="1052" type="line"/>
      <point x="8" y="1052" type="line"/>
      <point x="256" y="145" type="line" smooth="yes"/>
      <point x="267" y="105"/>
      <point x="284" y="40"/>
      <point x="290" y="15" type="qcurve"/>
      <point x="295" y="15" type="line"/>
      <point x="301" y="40"/>
      <point x="320" y="105"/>
      <point x="332" y="145" type="qcurve" smooth="yes"/>
      <point x="594" y="1052" type="line"/>
      <point x="602" y="1052" type="line"/>
      <point x="296" y="0" type="line"/>
      <point x="296" y="-416" type="line"/>
    </contour>
  </outline>
</glyph>
<glyph name="cheverticalstroke-cy" format="2">
  <advance width="757"/>
  <unicode hex="04B9"/>
  <outline>
    <contour>
      <point x="372" y="852" type="line"/>
      <point x="372" y="200" type="line"/>
      <point x="365" y="200" type="line"/>
      <point x="365" y="852" type="line"/>
    </contour>
    <contour>
      <point x="133" y="773" type="line" smooth="yes"/>
      <point x="133" y="642"/>
      <point x="232" y="542"/>
      <point x="355" y="542" type="qcurve" smooth="yes"/>
      <point x="444" y="542"/>
      <point x="562" y="558"/>
      <point x="605" y="569" type="qcurve"/>
      <point x="605" y="424" type="line"/>
      <point x="576" y="415"/>
      <point x="442" y="396"/>
      <point x="318" y="396" type="qcurve" smooth="yes"/>
      <point x="245" y="396"/>
      <point x="126" y="583"/>
      <point x="126" y="773" type="qcurve" smooth="yes"/>
      <point x="126" y="1052" type="line"/>
      <point x="133" y="1052" type="line"/>
    </contour>
    <contour>
      <point x="603" y="0" type="line"/>
      <point x="603" y="1052" type="line"/>
      <point x="610" y="1052" type="line"/>
      <point x="610" y="0" type="line"/>
    </contour>
  </outline>
</glyph>
<glyph name="be.locl" format="2">
  <advance width="796"/>
  <outline>
    <contour>
      <point x="92" y="522" type="qcurve" smooth="yes"/>
      <point x="92" y="490" type="line" smooth="yes"/>
      <point x="92" y="335"/>
      <point x="246" y="122"/>
      <point x="398" y="122" type="qcurve" smooth="yes"/>
      <point x="550" y="122"/>
      <point x="704" y="335"/>
      <point x="704" y="490" type="qcurve" smooth="yes"/>
      <point x="704" y="522" type="line" smooth="yes"/>
      <point x="704" y="670"/>
      <point x="553" y="890"/>
      <point x="398" y="890" type="qcurve" smooth="yes"/>
      <point x="246" y="890"/>
      <point x="92" y="677"/>
    </contour>
    <contour>
      <point x="85" y="490" type="qcurve" smooth="yes"/>
      <point x="85" y="522" type="line" smooth="yes"/>
      <point x="85" y="716"/>
      <point x="191" y="941"/>
      <point x="325" y="969" type="qcurve"/>
      <point x="325" y="973" type="line"/>
      <point x="228" y="1003"/>
      <point x="148" y="1129"/>
      <point x="148" y="1211" type="qcurve"/>
      <point x="148" y="1344"/>
      <point x="254" y="1485"/>
      <point x="342" y="1485" type="qcurve" smooth="yes"/>
      <point x="359" y="1485" type="line" smooth="yes"/>
      <point x="421" y="1485"/>
      <point x="484" y="1503"/>
      <point x="493" y="1536" type="qcurve"/>
      <point x="656" y="1536" type="line"/>
      <point x="644" y="1422"/>
      <point x="488" y="1316"/>
      <point x="371" y="1316" type="qcurve" smooth="yes"/>
      <point x="354" y="1316" type="line" smooth="yes"/>
      <point x="240" y="1316"/>
      <point x="155" y="1265"/>
      <point x="155" y="1211" type="qcurve"/>
      <point x="155" y="1134"/>
      <point x="312" y="1072"/>
      <point x="408" y="1050" type="qcurve" smooth="yes"/>
      <point x="540" y="1020"/>
      <point x="711" y="764"/>
      <point x="711" y="522" type="qcurve" smooth="yes"/>
      <point x="711" y="490" type="line" smooth="yes"/>
      <point x="711" y="261"/>
      <point x="540" y="-30"/>
      <point x="398" y="-30" type="qcurve" smooth="yes"/>
      <point x="256" y="-30"/>
      <point x="85" y="261"/>
    </contour>
  </outline>
</glyph>
<glyph name="brevecomb-stack" format="2">
  <anchor x="0" y="1450" name="top"/>
  <anchor x="0" y="1052" name="_top"/>
  <outline>
    <contour>
      <point x="0" y="1198" type="qcurve"/>
      <point x="-113" y="1198"/>
      <point x="-294" y="1352"/>
      <point x="-336" y="1466" type="qcurve"/>
      <point x="-236" y="1518" type="line"/>
      <point x="-208" y="1457"/>
      <point x="-79" y="1205"/>
      <point x="0" y="1205" type="qcurve"/>
      <point x="79" y="1205"/>
      <point x="208" y="1457"/>
      <point x="236" y="1518" type="qcurve"/>
      <point x="336" y="1466" type="line"/>
      <point x="294" y="1352"/>
      <point x="113" y="1198"/>
    </contour>
  </outline>
</glyph>
<glyph name="dieresiscomb-stack" format="2">
  <anchor x="0" y="1052" name="_top"/>
  <anchor x="0" y="1257" name="top"/>
  <outline>
    <contour>
      <point x="-121" y="1236" type="qcurve" smooth="yes"/>
      <point x="-121" y="1245"/>
      <point x="-110" y="1257"/>
      <point x="-99" y="1257" type="qcurve" smooth="yes"/>
      <point x="-88" y="1257"/>
      <point x="-77" y="1245"/>
      <point x="-77" y="1236" type="qcurve" smooth="yes"/>
      <point x="-77" y="1227"/>
      <point x="-88" y="1215"/>
      <point x="-99" y="1215" type="qcurve" smooth="yes"/>
      <point x="-110" y="1215"/>
      <point x="-121" y="1227"/>
    </contour>
    <contour>
      <point x="76" y="1236" type="qcurve" smooth="yes"/>
      <point x="76" y="1245"/>
      <point x="87" y="1257"/>
      <point x="98" y="1257" type="qcurve" smooth="yes"/>
      <point x="108" y="1257"/>
      <point x="120" y="1245"/>
      <point x="120" y="1236" type="qcurve" smooth="yes"/>
      <point x="120" y="1227"/>
      <point x="108" y="1215"/>
      <point x="98" y="1215" type="qcurve" smooth="yes"/>
      <point x="87" y="1215"/>
      <point x="76" y="1227"/>
    </contour>
  </outline>
</glyph>
<glyph name="dieresistonoscomb" format="2">
  <anchor x="0" y="1052" name="_top"/>
  <outline>
    <contour>
      <point x="-161" y="1225" type="qcurve" smooth="yes"/>
      <point x="-161" y="1229"/>
      <point x="-156" y="1234"/>
      <point x="-152" y="1234" type="qcurve" smooth="yes"/>
      <point x="-148" y="1234"/>
      <point x="-143" y="1229"/>
      <point x="-143" y="1225" type="qcurve" smooth="yes"/>
      <point x="-143" y="1221"/>
      <point x="-148" y="1216"/>
      <point x="-152" y="1216" type="qcurve" smooth="yes"/>
      <point x="-156" y="1216"/>
      <point x="-161" y="1221"/>
    </contour>
    <contour>
      <point x="51" y="1204" type="line"/>
      <point x="-65" y="1212" type="line"/>
      <point x="43" y="1599" type="line"/>
      <point x="50" y="1599" type="line"/>
    </contour>
    <contour>
      <point x="142" y="1225" type="qcurve" smooth="yes"/>
      <point x="142" y="1229"/>
      <point x="147" y="1234"/>
      <point x="151" y="1234" type="qcurve" smooth="yes"/>
      <point x="155" y="1234"/>
      <point x="160" y="1229"/>
      <point x="160" y="1225" type="qcurve" smooth="yes"/>
      <point x="160" y="1221"/>
      <point x="155" y="1216"/>
      <point x="151" y="1216" type="qcurve" smooth="yes"/>
      <point x="147" y="1216"/>
      <point x="142" y="1221"/>
    </contour>
  </outline>
</glyph>
<glyph name="dotaccentcomb-stack" format="2">
  <anchor x="0" y="1052" name="_top"/>
  <anchor x="0" y="1231" name="top"/>
  <outline>
    <contour>
      <point x="-9" y="1222" type="qcurve" smooth="yes"/>
      <point x="-9" y="1226"/>
      <point x="-4" y="1231"/>
      <point x="0" y="1231" type="qcurve" smooth="yes"/>
      <point x="4" y="1231"/>
      <point x="9" y="1226"/>
      <point x="9" y="1222" type="qcurve" smooth="yes"/>
      <point x="9" y="1218"/>
      <point x="4" y="1213"/>
      <point x="0" y="1213" type="qcurve" smooth="yes"/>
      <point x="-4" y="1213"/>
      <point x="-9" y="1218"/>
    </contour>
  </outline>
</glyph>
<glyph name="el.bgr" format="2">
  <advance width="600"/>
  <outline>
    <contour>
      <point x="600" y="0" type="line"/>
      <point x="593" y="0" type="line"/>
      <point x="342" y="915" type="line" smooth="yes"/>
      <point x="331" y="955"/>
      <point x="311" y="1025"/>
      <point x="306" y="1045" type="qcurve"/>
      <point x="300" y="1045" type="line"/>
      <point x="295" y="1025"/>
      <point x="276" y="956"/>
      <point x="264" y="915" type="qcurve" smooth="yes"/>
      <point x="7" y="0" type="line"/>
      <point x="0" y="0" type="line"/>
      <point x="296" y="1052" type="line"/>
      <point x="311" y="1052" type="line"/>
    </contour>
  </outline>
</glyph>
<glyph name="ghe.bgr" format="2">
  <advance width="664"/>
  <outline>
    <contour>
      <point x="578" y="310" type="line"/>
      <point x="578" y="305" type="line" smooth="yes"/>
      <point x="578" y="130"/>
      <point x="436" y="-30"/>
      <point x="324" y="-30" type="qcurve" smooth="yes"/>
      <point x="211" y="-30"/>
      <point x="80" y="128"/>
      <point x="80" y="280" type="qcurve" smooth="yes"/>
      <point x="80" y="374"/>
      <point x="164" y="520"/>
      <point x="305" y="558" type="qcurve"/>
      <point x="460" y="596"/>
      <point x="545" y="715"/>
      <point x="545" y="790" type="qcurve" smooth="yes"/>
      <point x="545" y="850"/>
      <point x="443" y="930"/>
      <point x="334" y="930" type="qcurve" smooth="yes"/>
      <point x="222" y="930"/>
      <point x="122" y="844"/>
      <point x="122" y="769" type="qcurve" smooth="yes"/>
      <point x="122" y="760" type="line"/>
      <point x="115" y="760" type="line"/>
      <point x="115" y="769" type="line" smooth="yes"/>
      <point x="115" y="914"/>
      <point x="219" y="1082"/>
      <point x="334" y="1082" type="qcurve" smooth="yes"/>
      <point x="446" y="1082"/>
      <point x="552" y="923"/>
      <point x="552" y="790" type="qcurve" smooth="yes"/>
      <point x="552" y="713"/>
      <point x="463" y="589"/>
      <point x="306" y="551" type="qcurve" smooth="yes"/>
      <point x="168" y="514"/>
      <point x="87" y="371"/>
      <point x="87" y="280" type="qcurve" smooth="yes"/>
      <point x="87" y="210"/>
      <point x="214" y="122"/>
      <point x="324" y="122" type="qcurve" smooth="yes"/>
      <point x="434" y="122"/>
      <point x="571" y="214"/>
      <point x="571" y="305" type="qcurve" smooth="yes"/>
      <point x="571" y="310" type="line"/>
    </contour>
  </outline>
</glyph>
<glyph name="hookabovecomb-stack" format="2">
  <anchor x="0" y="1052" name="_top"/>
  <anchor x="0" y="1657" name="top"/>
  <anchor x="0" y="1052" name="_topright"/>
  <outline>
    <contour>
      <point x="-70" y="1220" type="line"/>
      <point x="-70" y="1259" type="line" smooth="yes"/>
      <point x="-70" y="1313"/>
      <point x="-26" y="1370"/>
      <point x="50" y="1386" type="qcurve" smooth="yes"/>
      <point x="127" y="1402"/>
      <point x="220" y="1436"/>
      <point x="220" y="1453" type="qcurve" smooth="yes"/>
      <point x="220" y="1545"/>
      <point x="109" y="1650"/>
      <point x="6" y="1650" type="qcurve" smooth="yes"/>
      <point x="-47" y="1650"/>
      <point x="-186" y="1612"/>
      <point x="-226" y="1590" type="qcurve"/>
      <point x="-229" y="1597" type="line"/>
      <point x="-186" y="1620"/>
      <point x="-46" y="1657"/>
      <point x="6" y="1657" type="qcurve" smooth="yes"/>
      <point x="112" y="1657"/>
      <point x="227" y="1549"/>
      <point x="227" y="1453" type="qcurve" smooth="yes"/>
      <point x="227" y="1372"/>
      <point x="195" y="1269"/>
      <point x="52" y="1258" type="qcurve"/>
      <point x="52" y="1220" type="line"/>
    </contour>
  </outline>
</glyph>
<glyph name="horizontalbarlc" format="2">
  <advance width="475"/>
  <outline>
    <contour>
      <point x="144" y="656" type="line"/>
      <point x="29" y="656" type="line"/>
      <point x="40" y="802" type="line"/>
      <point x="184" y="802" type="line"/>
      <point x="475" y="802" type="line"/>
      <point x="475" y="656" type="line"/>
    </contour>
  </outline>
</glyph>
<glyph name="idot" format="2">
  <anchor x="0" y="1052" name="_top"/>
  <outline>
    <contour>
      <point x="-9" y="1372" type="qcurve" smooth="yes"/>
      <point x="-9" y="1376"/>
      <point x="-4" y="1381"/>
      <point x="0" y="1381" type="qcurve" smooth="yes"/>
      <point x="4" y="1381"/>
      <point x="9" y="1376"/>
      <point x="9" y="1372" type="qcurve" smooth="yes"/>
      <point x="9" y="1368"/>
      <point x="4" y="1363"/>
      <point x="0" y="1363" type="qcurve" smooth="yes"/>
      <point x="-4" y="1363"/>
      <point x="-9" y="1368"/>
    </contour>
  </outline>
</glyph>
<glyph name="jdotless" format="2">
  <advance width="321"/>
  <anchor x="250" y="-436" name="bottom"/>
  <anchor x="159" y="1052" name="top"/>
  <outline>
    <contour>
      <point x="-94" y="-410" type="qcurve"/>
      <point x="-94" y="-260" type="line"/>
      <point x="-74" y="-266"/>
      <point x="0" y="-280"/>
      <point x="30" y="-280" type="qcurve" smooth="yes"/>
      <point x="90" y="-280"/>
      <point x="157" y="-210"/>
      <point x="157" y="-130" type="qcurve" smooth="yes"/>
      <point x="157" y="1052" type="line"/>
      <point x="164" y="1052" type="line"/>
      <point x="164" y="-123" type="line" smooth="yes"/>
      <point x="164" y="-286"/>
      <point x="80" y="-436"/>
      <point x="2" y="-436" type="qcurve" smooth="yes"/>
      <point x="-22" y="-436"/>
      <point x="-79" y="-419"/>
    </contour>
  </outline>
</glyph>
<glyph name="obarcyr-stroke" format="2">
  <advance width="978"/>
  <guideline x="89" y="780" angle="90.0" identifier="HuPjA4mSCL"/>
  <guideline x="707" y="778" angle="90.0" identifier="F596JbvFPy"/>
  <outline>
    <contour>
      <point x="180" y="610" type="line"/>
      <point x="798" y="610" type="line"/>
      <point x="798" y="465" type="line"/>
      <point x="180" y="465" type="line"/>
    </contour>
  </outline>
</glyph>
<glyph name="sha.bgr" format="2">
  <advance width="1764"/>
  <anchor x="1530" y="0" name="cy_descender"/>
  <outline>
    <contour>
      <point x="1616" y="1052" type="line"/>
      <point x="1616" y="0" type="line"/>
      <point x="1448" y="0" type="line"/>
      <point x="1430" y="195" type="line"/>
      <point x="1430" y="1052" type="line"/>
    </contour>
    <contour>
      <point x="784" y="373" type="qcurve" smooth="yes"/>
      <point x="784" y="1052" type="line"/>
      <point x="970" y="1052" type="line"/>
      <point x="970" y="371" type="line" smooth="yes"/>
      <point x="970" y="245"/>
      <point x="1073" y="136"/>
      <point x="1177" y="136" type="qcurve" smooth="yes"/>
      <point x="1268" y="136"/>
      <point x="1419" y="252"/>
      <point x="1523" y="485" type="qcurve"/>
      <point x="1523" y="306" type="line"/>
      <point x="1452" y="120"/>
      <point x="1241" y="-20"/>
      <point x="1122" y="-20" type="qcurve" smooth="yes"/>
      <point x="963" y="-20"/>
      <point x="787" y="161"/>
    </contour>
    <contour>
      <point x="877" y="306" type="line"/>
      <point x="806" y="120"/>
      <point x="595" y="-20"/>
      <point x="476" y="-20" type="qcurve" smooth="yes"/>
      <point x="317" y="-20"/>
      <point x="141" y="161"/>
      <point x="138" y="373" type="qcurve" smooth="yes"/>
      <point x="138" y="1052" type="line"/>
      <point x="324" y="1052" type="line"/>
      <point x="324" y="371" type="line" smooth="yes"/>
      <point x="324" y="245"/>
      <point x="427" y="136"/>
      <point x="531" y="136" type="qcurve" smooth="yes"/>
      <point x="622" y="136"/>
      <point x="773" y="252"/>
      <point x="877" y="485" type="qcurve"/>
    </contour>
  </outline>
</glyph>
<glyph name="tonoscomb" format="2">
  <anchor x="0" y="1052" name="_top"/>
  <outline>
    <contour>
      <point x="-28" y="1220" type="line"/>
      <point x="-32" y="1221" type="line"/>
      <point x="-14" y="1606" type="line"/>
      <point x="171" y="1587" type="line"/>
    </contour>
  </outline>
</glyph>
<glyph name="yi-dieresiscomb" format="2">
  <anchor x="0" y="1052" name="_top"/>
  <outline>
    <contour>
      <point x="-150" y="1283" type="qcurve" smooth="yes"/>
      <point x="-150" y="1293"/>
      <point x="-137" y="1308"/>
      <point x="-125" y="1308" type="qcurve" smooth="yes"/>
      <point x="-112" y="1308"/>
      <point x="-99" y="1293"/>
      <point x="-99" y="1283" type="qcurve" smooth="yes"/>
      <point x="-99" y="1273"/>
      <point x="-112" y="1259"/>
      <point x="-125" y="1259" type="qcurve" smooth="yes"/>
      <point x="-137" y="1259"/>
      <point x="-150" y="1273"/>
    </contour>
    <contour>
      <point x="99" y="1283" type="qcurve" smooth="yes"/>
      <point x="99" y="1293"/>
      <point x="111" y="1307"/>
      <point x="124" y="1307" type="qcurve" smooth="yes"/>
      <point x="136" y="1307"/>
      <point x="149" y="1293"/>
      <point x="149" y="1283" type="qcurve" smooth="yes"/>
      <point x="149" y="1273"/>
      <point x="136" y="1259"/>
      <point x="124" y="1259" type="qcurve" smooth="yes"/>
      <point x="111" y="1259"/>
      <point x="99" y="1273"/>
    </contour>
  </outline>
</glyph>
<glyph name="zhe.bgr" format="2">
  <advance width="1530"/>
  <outline>
    <contour>
      <point x="82" y="0" type="line"/>
      <point x="535" y="621" type="line"/>
      <point x="541" y="619" type="line"/>
      <point x="90" y="0" type="line"/>
    </contour>
    <contour>
      <point x="762" y="0" type="line"/>
      <point x="762" y="1536" type="line"/>
      <point x="769" y="1536" type="line"/>
      <point x="769" y="0" type="line"/>
    </contour>
    <contour>
      <point x="1437" y="0" type="line"/>
      <point x="986" y="619" type="line"/>
      <point x="992" y="621" type="line"/>
      <point x="1445" y="0" type="line"/>
    </contour>
    <contour>
      <point x="29" y="1052" type="line"/>
      <point x="240" y="1052" type="line"/>
      <point x="763" y="465" type="line"/>
      <point x="763" y="249" type="line"/>
    </contour>
    <contour>
      <point x="1500" y="1052" type="line"/>
      <point x="768" y="250" type="line"/>
      <point x="768" y="465" type="line"/>
      <point x="1289" y="1052" type="line"/>
    </contour>
  </outline>
</glyph>
